<svg width="178" height="15" viewBox="0 0 178 15" fill="none" xmlns="http://www.w3.org/2000/svg">
<path d="M20.87 0.499999V14H16.46V2.246L17.306 2.354L12.77 14H8.18L3.644 2.408L4.49 2.282V14H0.08V0.499999H7.262L11.294 11.498H9.692L13.688 0.499999H20.87ZM35.439 5.648V8.852H25.269V5.648H35.439ZM28.455 7.25L27.627 12.272L25.863 10.328H36.105V14H23.037L24.027 7.25L23.037 0.499999H36.015V4.172H25.863L27.627 2.228L28.455 7.25ZM48.1565 7.448L48.5165 6.62C49.5365 6.656 50.3885 6.818 51.0725 7.106C51.7565 7.394 52.2665 7.796 52.6025 8.312C52.9505 8.816 53.1245 9.422 53.1245 10.13C53.1245 10.862 52.9565 11.522 52.6205 12.11C52.2965 12.698 51.7985 13.16 51.1265 13.496C50.4545 13.832 49.6145 14 48.6065 14H38.0045L39.0305 7.07L38.0045 0.499999H48.2285C49.4765 0.499999 50.4545 0.793999 51.1625 1.382C51.8705 1.958 52.2245 2.762 52.2245 3.794C52.2245 4.382 52.0925 4.934 51.8285 5.45C51.5645 5.966 51.1325 6.404 50.5325 6.764C49.9445 7.112 49.1525 7.34 48.1565 7.448ZM42.5405 12.992L40.7765 10.922H47.1305C47.5265 10.922 47.8385 10.82 48.0665 10.616C48.2945 10.4 48.4085 10.112 48.4085 9.752C48.4085 9.428 48.2945 9.152 48.0665 8.924C47.8505 8.696 47.5265 8.582 47.0945 8.582H41.7665V5.558H46.4105C46.7225 5.558 46.9805 5.462 47.1845 5.27C47.4005 5.078 47.5085 4.832 47.5085 4.532C47.5085 4.256 47.4125 4.028 47.2205 3.848C47.0285 3.668 46.7585 3.578 46.4105 3.578H40.7945L42.5405 1.508L43.4585 7.07L42.5405 12.992ZM67.0965 5.648V8.852H56.9265V5.648H67.0965ZM60.1125 7.25L59.2845 12.272L57.5205 10.328H67.7625V14H54.6945L55.6845 7.25L54.6945 0.499999H67.6725V4.172H57.5205L59.2845 2.228L60.1125 7.25ZM74.666 0.499999V11.948L72.578 9.86H82.622V14H70.022V0.499999H74.666ZM84.4445 0.499999H89.0885V14H84.4445V0.499999ZM96.0712 7.808C96.0712 8.3 96.1552 8.726 96.3232 9.086C96.5032 9.434 96.7732 9.704 97.1332 9.896C97.4932 10.088 97.9552 10.184 98.5192 10.184C99.0952 10.184 99.5632 10.094 99.9232 9.914C100.283 9.722 100.547 9.446 100.715 9.086C100.883 8.726 100.967 8.3 100.967 7.808V0.499999H105.611V8.06C105.611 9.32 105.317 10.418 104.729 11.354C104.141 12.29 103.313 13.022 102.245 13.55C101.189 14.066 99.9472 14.324 98.5192 14.324C97.1032 14.324 95.8612 14.066 94.7932 13.55C93.7372 13.022 92.9092 12.29 92.3092 11.354C91.7212 10.418 91.4272 9.32 91.4272 8.06V0.499999H96.0712V7.808ZM107.513 9.554H112.229C112.277 9.818 112.415 10.046 112.643 10.238C112.871 10.418 113.183 10.562 113.579 10.67C113.975 10.766 114.449 10.814 115.001 10.814C115.721 10.814 116.279 10.742 116.675 10.598C117.083 10.454 117.287 10.22 117.287 9.896C117.287 9.68 117.173 9.5 116.945 9.356C116.717 9.2 116.249 9.098 115.541 9.05L113.309 8.906C111.281 8.774 109.817 8.342 108.917 7.61C108.017 6.878 107.567 5.912 107.567 4.712C107.567 3.704 107.855 2.864 108.431 2.192C109.007 1.52 109.811 1.016 110.843 0.68C111.887 0.344 113.105 0.176 114.497 0.176C115.853 0.176 117.053 0.368 118.097 0.751999C119.153 1.124 119.987 1.652 120.599 2.336C121.223 3.02 121.565 3.818 121.625 4.73H116.909C116.873 4.514 116.753 4.328 116.549 4.172C116.357 4.016 116.081 3.896 115.721 3.812C115.361 3.728 114.923 3.686 114.407 3.686C113.747 3.686 113.225 3.752 112.841 3.884C112.469 4.016 112.283 4.232 112.283 4.532C112.283 4.736 112.391 4.91 112.607 5.054C112.835 5.198 113.267 5.294 113.903 5.342L116.423 5.504C117.743 5.588 118.811 5.786 119.627 6.098C120.443 6.398 121.037 6.818 121.409 7.358C121.793 7.898 121.985 8.564 121.985 9.356C121.985 10.352 121.691 11.222 121.103 11.966C120.515 12.71 119.687 13.292 118.619 13.712C117.563 14.12 116.327 14.324 114.911 14.324C113.447 14.324 112.163 14.126 111.059 13.73C109.955 13.334 109.091 12.776 108.467 12.056C107.855 11.336 107.537 10.502 107.513 9.554Z" fill="black"/>
<path d="M125.857 14.216C125.401 14.216 124.981 14.108 124.597 13.892C124.225 13.676 123.931 13.382 123.715 13.01C123.499 12.626 123.391 12.206 123.391 11.75C123.391 11.282 123.499 10.862 123.715 10.49C123.931 10.118 124.225 9.824 124.597 9.608C124.981 9.392 125.401 9.284 125.857 9.284C126.325 9.284 126.745 9.392 127.117 9.608C127.489 9.824 127.783 10.118 127.999 10.49C128.215 10.862 128.323 11.282 128.323 11.75C128.323 12.206 128.215 12.626 127.999 13.01C127.783 13.382 127.489 13.676 127.117 13.892C126.745 14.108 126.325 14.216 125.857 14.216ZM138.118 0.499999C139.342 0.499999 140.386 0.703999 141.25 1.112C142.126 1.508 142.792 2.078 143.248 2.822C143.704 3.554 143.932 4.418 143.932 5.414C143.932 6.41 143.704 7.28 143.248 8.024C142.792 8.756 142.126 9.326 141.25 9.734C140.386 10.13 139.342 10.328 138.118 10.328H132.412V6.71H137.812C138.268 6.71 138.622 6.596 138.874 6.368C139.126 6.14 139.252 5.822 139.252 5.414C139.252 4.994 139.126 4.676 138.874 4.46C138.622 4.232 138.268 4.118 137.812 4.118H132.808L134.896 2.03V14H130.252V0.499999H138.118ZM148.88 6.278H153.416C153.872 6.278 154.226 6.17 154.478 5.954C154.73 5.738 154.856 5.426 154.856 5.018C154.856 4.61 154.73 4.298 154.478 4.082C154.226 3.866 153.872 3.758 153.416 3.758H148.232L150.32 1.67V14H145.676V0.499999H154.136C155.216 0.499999 156.158 0.691999 156.962 1.076C157.778 1.448 158.408 1.97 158.852 2.642C159.308 3.314 159.536 4.106 159.536 5.018C159.536 5.906 159.308 6.692 158.852 7.376C158.408 8.048 157.778 8.57 156.962 8.942C156.158 9.314 155.216 9.5 154.136 9.5H148.88V6.278ZM150.464 7.682H155.594L160.076 14H154.766L150.464 7.682ZM169.349 14.324C167.705 14.324 166.265 14.03 165.029 13.442C163.805 12.854 162.851 12.032 162.167 10.976C161.483 9.908 161.141 8.666 161.141 7.25C161.141 5.834 161.483 4.598 162.167 3.542C162.851 2.474 163.805 1.646 165.029 1.058C166.265 0.47 167.705 0.176 169.349 0.176C170.993 0.176 172.427 0.47 173.651 1.058C174.887 1.646 175.847 2.474 176.531 3.542C177.215 4.598 177.557 5.834 177.557 7.25C177.557 8.666 177.215 9.908 176.531 10.976C175.847 12.032 174.887 12.854 173.651 13.442C172.427 14.03 170.993 14.324 169.349 14.324ZM169.349 10.184C170.081 10.184 170.711 10.07 171.239 9.842C171.767 9.602 172.169 9.266 172.445 8.834C172.733 8.39 172.877 7.862 172.877 7.25C172.877 6.638 172.733 6.116 172.445 5.684C172.169 5.24 171.767 4.904 171.239 4.676C170.711 4.436 170.081 4.316 169.349 4.316C168.617 4.316 167.987 4.436 167.459 4.676C166.931 4.904 166.523 5.24 166.235 5.684C165.959 6.116 165.821 6.638 165.821 7.25C165.821 7.862 165.959 8.39 166.235 8.834C166.523 9.266 166.931 9.602 167.459 9.842C167.987 10.07 168.617 10.184 169.349 10.184Z" fill="#B08E76"/>
</svg>
