<svg width="64" height="77" viewBox="0 0 64 77" fill="none" xmlns="http://www.w3.org/2000/svg">
<path d="M38.4915 6.94943L38.6425 7.05051L38.8231 7.03115L46.5915 6.19826L50.319 13.0647L50.4057 13.2243L50.5746 13.2911L57.8402 16.1638L57.9498 23.9759L57.9523 24.1576L58.0709 24.2952L63.1693 30.2154L59.6358 37.1836L59.5537 37.3456L59.5946 37.5226L61.3578 45.134L54.9908 49.6619L54.8428 49.7672L54.7968 49.943L52.8209 57.5019L45.0789 58.5523L44.8989 58.5767L44.7765 58.711L39.5141 64.4858L32.1707 61.8181L32 61.756L31.8293 61.8181L24.4859 64.4858L19.2235 58.711L19.1011 58.5767L18.9211 58.5523L11.1791 57.5019L9.20318 49.943L9.15724 49.7672L9.00921 49.6619L2.64215 45.134L4.40535 37.5226L4.44635 37.3456L4.36419 37.1836L0.830708 30.2154L5.92913 24.2952L6.04766 24.1576L6.05021 23.9759L6.15977 16.1638L13.4254 13.2911L13.5943 13.2243L13.681 13.0647L17.4085 6.19826L25.1769 7.03115L25.3575 7.05051L25.5085 6.94943L32 2.60178L38.4915 6.94943Z" stroke="black"/>
<path d="M13.0001 57.5L6.00011 69.2583L14.4096 66.6925L16.3924 75.2583L23.3547 63.1992" stroke="black"/>
<path d="M51.3544 57.5L58.3544 69.2583L49.9449 66.6925L47.9621 75.2583L40.9998 63.1992" stroke="black"/>
<path d="M22.0002 17.6795C26.1294 15.2955 30.9745 14.4651 35.662 15.3381C40.3494 16.2111 44.5707 18.73 47.5649 22.4406C50.5591 26.1513 52.1291 30.8096 51.9919 35.5756C51.8547 40.3417 50.0193 44.9019 46.8166 48.4342C43.6138 51.9664 39.2546 54.2382 34.5247 54.8401C29.7948 55.4419 25.0055 54.3342 21.0202 51.7165C17.035 49.0989 14.1161 45.1436 12.7897 40.5638C11.4633 35.984 11.8167 31.0809 13.7862 26.7387" stroke="black" stroke-linecap="round"/>
<path d="M16 22.5L17 21.5L18 20.5" stroke="black" stroke-linecap="round"/>
<mask id="path-6-inside-1_230_175" fill="white">
<path fill-rule="evenodd" clip-rule="evenodd" d="M27.7144 32.3304C27.8203 32.3069 27.9264 32.2819 28.0324 32.2551C30.4501 31.6453 32.2634 29.8158 34.0767 26.7664C35.89 23.717 40.8135 24.4508 39.0002 27.5002C38.5694 28.2246 38.1871 28.8485 37.8624 29.3783C37.373 30.1767 37.0147 30.7615 36.8188 31.1548C36.6899 31.4136 36.8825 31.6454 37.1715 31.6454H41.0315C42.5132 31.6454 43.7144 32.8466 43.7144 34.3282V34.7486C43.7144 36.5555 43.2724 38.3349 42.427 39.9318C41.6121 41.471 40.1602 42.5647 38.4255 42.7197C35.6673 42.966 31.9458 43.0415 30.9286 42.3572C29.6004 41.4638 28.7992 41.0401 27.7144 40.8774V42.0001C27.7144 42.5524 27.2666 43.0001 26.7144 43.0001H21.0001C20.4478 43.0001 20.0001 42.5524 20.0001 42.0001V31.1429C20.0001 30.5907 20.4478 30.1429 21.0001 30.1429H26.7144C27.2666 30.1429 27.7144 30.5907 27.7144 31.1429V32.3304Z"/>
</mask>
<path d="M28.0324 32.2551L28.277 33.2248L28.277 33.2248L28.0324 32.2551ZM27.7144 32.3304L27.9307 33.3067L26.7144 33.5763V32.3304H27.7144ZM34.0767 26.7664L33.2172 26.2553L33.2172 26.2553L34.0767 26.7664ZM39.0002 27.5002L39.8597 28.0113L39.8597 28.0113L39.0002 27.5002ZM37.8624 29.3783L37.0098 28.8558L37.0098 28.8558L37.8624 29.3783ZM36.8188 31.1548L37.7139 31.6006L37.7139 31.6006L36.8188 31.1548ZM42.427 39.9318L41.5432 39.4639L41.5432 39.4639L42.427 39.9318ZM38.4255 42.7197L38.3365 41.7236L38.3365 41.7236L38.4255 42.7197ZM30.9286 42.3572L30.3705 43.187L30.3705 43.187L30.9286 42.3572ZM27.7144 40.8774H26.7144V39.7162L27.8627 39.8885L27.7144 40.8774ZM28.277 33.2248C28.1611 33.254 28.0456 33.2813 27.9307 33.3067L27.498 31.3541C27.5949 31.3326 27.6916 31.3098 27.7878 31.2855L28.277 33.2248ZM34.9362 27.2775C33.078 30.4024 31.085 32.5165 28.277 33.2248L27.7878 31.2855C29.8153 30.7741 31.4488 29.2292 33.2172 26.2553L34.9362 27.2775ZM38.1407 26.9891C38.4903 26.4012 38.382 26.1668 38.3644 26.1331C38.329 26.0653 38.1793 25.8992 37.751 25.8353C36.8941 25.7076 35.6215 26.1251 34.9362 27.2775L33.2172 26.2553C34.3452 24.3584 36.4409 23.618 38.0458 23.8572C38.8484 23.9768 39.7029 24.3753 40.1373 25.2074C40.5896 26.0737 40.4168 27.0745 39.8597 28.0113L38.1407 26.9891ZM37.0098 28.8558C37.3345 28.3259 37.7137 27.7071 38.1407 26.9891L39.8597 28.0113C39.4251 28.7421 39.0396 29.3711 38.715 29.9009L37.0098 28.8558ZM35.9236 30.7091C36.1443 30.266 36.533 29.6336 37.0098 28.8558L38.715 29.9009C38.213 30.7199 37.885 31.257 37.7139 31.6006L35.9236 30.7091ZM37.1715 32.6454C36.7679 32.6454 36.328 32.4808 36.0403 32.0996C35.7287 31.6869 35.7014 31.1553 35.9236 30.7091L37.7139 31.6006C37.8073 31.4131 37.8118 31.1268 37.6366 30.8947C37.4852 30.6941 37.2861 30.6454 37.1715 30.6454V32.6454ZM41.0315 32.6454H37.1715V30.6454H41.0315V32.6454ZM42.7144 34.3282C42.7144 33.3988 41.9609 32.6454 41.0315 32.6454V30.6454C43.0655 30.6454 44.7144 32.2943 44.7144 34.3282H42.7144ZM42.7144 34.7486V34.3282H44.7144V34.7486H42.7144ZM41.5432 39.4639C42.3123 38.0112 42.7144 36.3924 42.7144 34.7486H44.7144C44.7144 36.7186 44.2325 38.6587 43.3108 40.3997L41.5432 39.4639ZM38.3365 41.7236C39.6869 41.603 40.8633 40.7482 41.5432 39.4639L43.3108 40.3997C42.3609 42.1939 40.6335 43.5265 38.5145 43.7157L38.3365 41.7236ZM31.4868 41.5275C31.549 41.5693 31.7861 41.6679 32.2987 41.7496C32.7736 41.8254 33.3721 41.8704 34.0498 41.8878C35.4023 41.9224 36.9819 41.8446 38.3365 41.7236L38.5145 43.7157C37.1109 43.8411 35.4507 43.9243 33.9986 43.8871C33.274 43.8686 32.579 43.8196 31.9838 43.7247C31.4264 43.6358 30.8169 43.4873 30.3705 43.187L31.4868 41.5275ZM27.8627 39.8885C29.1761 40.0855 30.1303 40.615 31.4868 41.5275L30.3705 43.187C29.0706 42.3125 28.4223 41.9948 27.566 41.8663L27.8627 39.8885ZM28.7144 40.8774V42.0001H26.7144V40.8774H28.7144ZM28.7144 42.0001C28.7144 43.1047 27.8189 44.0001 26.7144 44.0001V42.0001H26.7144H28.7144ZM26.7144 44.0001H21.0001V42.0001H26.7144V44.0001ZM21.0001 44.0001C19.8955 44.0001 19.0001 43.1047 19.0001 42.0001H21.0001V44.0001ZM19.0001 42.0001V31.1429H21.0001V42.0001H19.0001ZM19.0001 31.1429C19.0001 30.0384 19.8955 29.1429 21.0001 29.1429V31.1429V31.1429H19.0001ZM21.0001 29.1429H26.7144V31.1429H21.0001V29.1429ZM26.7144 29.1429C27.8189 29.1429 28.7144 30.0384 28.7144 31.1429H26.7144H26.7144V29.1429ZM28.7144 31.1429V32.3304H26.7144V31.1429H28.7144Z" fill="black" mask="url(#path-6-inside-1_230_175)"/>
</svg>
