<svg width="733" height="512" viewBox="0 0 733 512" fill="none" xmlns="http://www.w3.org/2000/svg">
<g filter="url(#filter0_bdi_303_2017)">
<circle cx="56.6165" cy="56.6165" r="56.6165" transform="matrix(0.119259 0.992863 -0.800215 0.599713 212.581 53.4155)" fill="#D6E6F0"/>
</g>
<ellipse cx="41.3362" cy="41.3362" rx="41.3362" ry="41.3362" transform="matrix(0.119259 0.992863 -0.800215 0.599713 200.323 77.7507)" fill="#BDD0DD"/>
<ellipse cx="25.8685" cy="25.8685" rx="25.8685" ry="25.8685" transform="matrix(0.119259 0.992863 -0.800215 0.599713 189.79 102.384)" fill="#D6E6F0"/>
<circle cx="13.6182" cy="13.6182" r="13.6182" transform="matrix(0.119259 0.992863 -0.800215 0.599713 181.448 121.894)" fill="#42445C"/>
<path d="M175.116 143.533L105.431 116.33L84.7802 112.362L84.9232 107.835L94.0032 106.389L93.9787 101.049L108.286 107.166L108.303 110.858L173.458 139.276L175.116 143.533Z" fill="#8785F3"/>
<path fill-rule="evenodd" clip-rule="evenodd" d="M108.143 111.693L93.8359 105.575L93.8604 110.915L84.7805 112.362L99.0874 118.479L105.295 117.49L171.807 145.929L175.202 143.384L108.157 114.716L108.143 111.693Z" fill="#4E4BE0"/>
<g opacity="0.4" filter="url(#filter1_f_303_2017)">
<path d="M81.7478 348.976C68.0338 340.954 68.091 328.048 81.8758 320.066L453.617 104.83C467.494 96.7955 490.029 96.7863 503.926 104.809L651.259 189.872C665.142 197.887 665.142 210.883 651.259 218.898L278.029 434.382C264.082 442.434 241.447 442.392 227.592 434.287L81.7478 348.976Z" fill="#0F193F"/>
</g>
<path fill-rule="evenodd" clip-rule="evenodd" d="M61.6156 291.855C60.525 297.766 63.8713 303.9 71.6627 308.458L217.507 393.769C231.362 401.874 253.997 401.917 267.944 393.864L641.174 178.38C648.875 173.933 652.304 167.954 651.461 162.143V142.121L635.05 145.819L493.841 64.2916C479.944 56.2685 457.408 56.2777 443.532 64.3123L91.0135 268.419L61.6156 275.043V291.855Z" fill="#B1C6D5"/>
<path d="M71.6628 288.922C57.9488 280.9 58.0059 267.994 71.7908 260.013L443.532 44.7767C457.409 36.7421 479.944 36.7329 493.841 44.756L641.174 129.819C655.057 137.834 655.057 150.829 641.174 158.844L267.944 374.329C253.997 382.381 231.362 382.338 217.507 374.234L71.6628 288.922Z" fill="#D6E6F0"/>
<path d="M370.099 126.01C351.453 124.943 333.543 128.304 326.919 130.117L303.725 143.508L464.172 236.142L628.969 140.997C618.469 142.453 593.448 144.846 577.355 142.772C557.239 140.179 536.095 136.429 504.319 139.79C472.542 143.151 448.706 143.485 422.651 138.873C396.595 134.26 393.406 127.344 370.099 126.01Z" fill="url(#paint0_linear_303_2017)"/>
<path d="M370.099 126.01C351.453 124.943 333.543 128.304 326.919 130.117L303.725 143.508L464.172 236.142L628.969 140.997C618.469 142.453 593.448 144.846 577.355 142.772C557.239 140.179 536.095 136.429 504.319 139.79C472.542 143.151 448.706 143.485 422.651 138.873C396.595 134.26 393.406 127.344 370.099 126.01Z" fill="url(#paint1_linear_303_2017)"/>
<g filter="url(#filter2_ddii_303_2017)">
<path d="M218.513 205.597C209.902 200.593 209.904 192.513 218.518 187.511L273.372 155.658C280.596 151.462 292.348 151.452 299.594 155.636L350.591 185.079C359.267 190.088 359.267 198.21 350.591 203.22L295.422 235.071C288.176 239.255 276.42 239.244 269.196 235.047L218.513 205.597Z" fill="white"/>
</g>
<g filter="url(#filter3_ddii_303_2017)">
<path d="M124.36 260.19C115.748 255.186 115.75 247.107 124.364 242.104L179.218 210.251C186.442 206.055 198.194 206.046 205.44 210.229L256.437 239.672C265.114 244.681 265.114 252.803 256.437 257.813L201.269 289.664C194.022 293.848 182.266 293.837 175.043 289.64L124.36 260.19Z" fill="white"/>
</g>
<g filter="url(#filter4_ddii_303_2017)">
<path d="M216.931 311.618C208.319 306.614 208.322 298.535 216.936 293.533L271.789 261.679C279.013 257.484 290.766 257.474 298.011 261.657L349.008 291.101C357.685 296.11 357.685 304.232 349.008 309.241L293.84 341.093C286.593 345.277 274.838 345.266 267.614 341.069L216.931 311.618Z" fill="white"/>
</g>
<path d="M456.824 125.273C475.798 126.893 494.996 126.065 518.561 123.573C543.25 120.961 561.521 122.643 577.879 124.739" stroke="#4E4BE0" stroke-width="2.37362"/>
<path d="M567.988 117.596L580.252 124.717L567.988 131.442" stroke="#4E4BE0" stroke-width="2.37362"/>
<g filter="url(#filter5_i_303_2017)">
<path d="M307.906 255.241C299.297 250.236 299.302 242.157 307.918 237.156L363.812 204.71C371.036 200.516 382.787 200.506 390.031 204.689L436.918 231.759C445.594 236.768 445.594 244.89 436.918 249.9L380.718 282.347C373.47 286.531 361.713 286.52 354.49 282.321L307.906 255.241Z" fill="#4E4BE0"/>
</g>
<path d="M241.43 302.118C242.515 302.744 243.107 303.46 243.206 304.263C243.327 305.067 242.822 305.795 241.693 306.447C240.575 307.093 239.309 307.381 237.894 307.311C236.48 307.242 235.225 306.89 234.128 306.257C233.251 305.751 232.676 305.178 232.402 304.539C232.139 303.893 232.27 303.26 232.796 302.64L234.835 302.963C234.43 303.374 234.298 303.792 234.441 304.216C234.594 304.634 234.989 305.026 235.625 305.393C236.348 305.811 237.121 306.042 237.944 306.086C238.766 306.131 239.511 305.96 240.18 305.574C240.849 305.188 241.145 304.757 241.068 304.282C241.002 303.801 240.619 303.358 239.917 302.953L236.661 301.073L243.058 297.874L249.356 301.51L247.926 302.336L243.009 299.497L239.753 301.149L241.43 302.118ZM250.198 307.18C251.284 307.807 251.876 308.522 251.974 309.326C252.095 310.13 251.591 310.858 250.462 311.51C249.343 312.155 248.077 312.443 246.663 312.374C245.248 312.304 243.993 311.953 242.897 311.32C242.02 310.813 241.444 310.241 241.17 309.601C240.907 308.956 241.039 308.323 241.565 307.702L243.604 308.025C243.198 308.437 243.067 308.854 243.209 309.278C243.363 309.696 243.757 310.089 244.393 310.456C245.117 310.874 245.89 311.105 246.712 311.149C247.534 311.193 248.28 311.022 248.949 310.636C249.617 310.25 249.913 309.82 249.837 309.345C249.771 308.864 249.387 308.421 248.685 308.016L245.429 306.136L251.826 302.936L258.125 306.573L256.694 307.399L251.777 304.56L248.521 306.212L250.198 307.18ZM263.584 309.724L270.771 313.874L269.406 314.662L255.066 318.099L253.47 317.178L267.695 313.769L262.137 310.56L263.584 309.724ZM272.18 321.106C272.454 321.593 272.509 322.068 272.344 322.53C272.18 322.992 271.791 323.4 271.177 323.754C270.124 324.362 268.929 324.628 267.592 324.552C266.265 324.47 265.021 324.093 263.859 323.422C262.708 322.758 262.061 322.042 261.918 321.276C261.787 320.504 262.247 319.814 263.3 319.207C263.914 318.852 264.621 318.627 265.421 318.532C266.221 318.438 267.044 318.469 267.888 318.627C267.537 317.741 267.904 316.985 268.99 316.358C270.031 315.757 271.177 315.494 272.427 315.57C273.698 315.646 274.822 315.966 275.798 316.529C276.784 317.099 277.338 317.748 277.459 318.476C277.601 319.203 277.152 319.868 276.11 320.469C275.025 321.096 273.715 321.308 272.18 321.106ZM274.334 317.374C273.753 317.039 273.112 316.846 272.41 316.795C271.719 316.751 271.073 316.903 270.47 317.251C269.889 317.586 269.631 317.963 269.697 318.381C269.773 318.792 270.097 319.162 270.667 319.491C271.237 319.821 271.878 320.007 272.591 320.052C273.315 320.09 273.967 319.941 274.548 319.605C275.151 319.257 275.414 318.884 275.337 318.485C275.261 318.086 274.926 317.716 274.334 317.374ZM265.322 322.577C266.057 323.001 266.813 323.242 267.592 323.299C268.392 323.356 269.116 323.197 269.762 322.824C270.398 322.457 270.661 322.045 270.552 321.59C270.464 321.134 270.053 320.694 269.318 320.27C268.595 319.852 267.833 319.615 267.033 319.558C266.254 319.501 265.547 319.656 264.911 320.023C264.264 320.397 263.985 320.811 264.073 321.267C264.182 321.723 264.599 322.159 265.322 322.577ZM278.506 329.999C276.642 330.176 275.009 329.86 273.605 329.049C272.202 328.239 271.654 327.296 271.961 326.22C272.268 325.144 273.326 324.084 275.135 323.039C276.944 321.995 278.78 321.384 280.644 321.207C282.508 321.03 284.141 321.346 285.544 322.156C286.948 322.967 287.496 323.91 287.189 324.986C286.882 326.062 285.824 327.122 284.015 328.166C282.206 329.211 280.37 329.822 278.506 329.999ZM274.115 326.268C273.841 327.008 274.17 327.647 275.102 328.185C276.034 328.723 277.141 328.913 278.424 328.755C279.717 328.603 281.077 328.116 282.502 327.293C283.927 326.47 284.772 325.685 285.035 324.938C285.32 324.191 284.996 323.549 284.064 323.011C283.133 322.473 282.025 322.283 280.743 322.441C279.46 322.599 278.1 323.093 276.664 323.922C275.239 324.745 274.389 325.527 274.115 326.268Z" fill="#485687"/>
<path d="M320.476 250.108L321.726 249.386L329.932 249.339C332.102 249.339 333.577 249.114 334.355 248.665C335.002 248.291 335.309 247.886 335.276 247.449C335.243 247.013 334.942 246.63 334.372 246.301C333.286 245.674 331.982 245.516 330.458 245.826L329.932 244.649C331.039 244.427 332.102 244.389 333.122 244.535C334.153 244.687 335.057 244.987 335.835 245.437C336.8 245.994 337.321 246.661 337.398 247.44C337.474 248.219 336.976 248.918 335.901 249.538C334.739 250.209 332.788 250.545 330.047 250.545L324.176 250.535L329.389 253.545L327.909 254.399L320.476 250.108ZM338.262 258.744C336.399 258.921 334.765 258.605 333.362 257.794C331.958 256.984 331.41 256.041 331.717 254.965C332.024 253.889 333.082 252.829 334.891 251.784C336.7 250.74 338.536 250.129 340.4 249.952C342.264 249.775 343.897 250.091 345.301 250.901C346.704 251.712 347.252 252.655 346.945 253.731C346.638 254.807 345.58 255.867 343.771 256.911C341.962 257.956 340.126 258.567 338.262 258.744ZM333.872 255.013C333.597 255.753 333.926 256.392 334.858 256.93C335.79 257.468 336.897 257.658 338.18 257.5C339.474 257.348 340.833 256.861 342.258 256.038C343.684 255.215 344.528 254.43 344.791 253.683C345.076 252.936 344.753 252.294 343.821 251.756C342.889 251.218 341.782 251.028 340.499 251.186C339.216 251.345 337.857 251.838 336.421 252.667C334.995 253.49 334.146 254.272 333.872 255.013ZM350.709 258.866C351.86 259.531 352.447 260.287 352.469 261.135C352.502 261.977 351.948 262.727 350.808 263.386C349.668 264.044 348.363 264.367 346.894 264.354C345.425 264.341 344.115 264.003 342.964 263.338C341.802 262.667 341.21 261.908 341.188 261.059C341.177 260.218 341.741 259.468 342.881 258.809C343.769 258.297 344.767 257.986 345.874 257.879L355.116 256.815L356.86 257.822L350.134 258.572C350.397 258.698 350.589 258.797 350.709 258.866ZM343.309 261.088C343.331 261.607 343.704 262.075 344.427 262.493C345.151 262.911 345.957 263.123 346.845 263.129C347.755 263.136 348.571 262.93 349.295 262.512C350.019 262.094 350.369 261.626 350.347 261.107C350.336 260.594 349.969 260.129 349.246 259.711C348.511 259.287 347.7 259.072 346.812 259.066C345.924 259.059 345.118 259.265 344.394 259.683C343.671 260.1 343.309 260.569 343.309 261.088ZM363.352 265.786C362.464 266.299 361.456 266.609 360.326 266.716L360.343 266.726L351.084 267.78L349.358 266.783L356.117 266.033C355.853 265.906 355.656 265.805 355.525 265.729C354.362 265.058 353.765 264.302 353.732 263.46C353.721 262.618 354.286 261.868 355.426 261.21C356.566 260.551 357.86 260.228 359.307 260.241C360.776 260.254 362.092 260.596 363.254 261.267C364.416 261.937 365.002 262.694 365.013 263.536C365.046 264.378 364.493 265.128 363.352 265.786ZM359.356 261.466C358.468 261.46 357.662 261.665 356.939 262.083C356.215 262.501 355.853 262.969 355.853 263.488C355.875 264.007 356.248 264.476 356.972 264.893C357.695 265.311 358.501 265.523 359.389 265.53C360.299 265.536 361.116 265.33 361.839 264.912C362.563 264.495 362.919 264.029 362.908 263.517C362.897 263.004 362.525 262.536 361.79 262.112C361.066 261.694 360.255 261.479 359.356 261.466ZM365.82 274.655C363.957 274.832 362.323 274.515 360.92 273.705C359.517 272.895 358.968 271.952 359.275 270.876C359.582 269.8 360.64 268.74 362.449 267.695C364.258 266.651 366.095 266.04 367.958 265.863C369.822 265.685 371.456 266.002 372.859 266.812C374.262 267.622 374.81 268.565 374.503 269.641C374.196 270.718 373.138 271.778 371.33 272.822C369.521 273.867 367.684 274.477 365.82 274.655ZM361.43 270.923C361.156 271.664 361.484 272.303 362.416 272.841C363.348 273.379 364.456 273.569 365.738 273.411C367.032 273.259 368.391 272.772 369.817 271.949C371.242 271.126 372.086 270.341 372.349 269.594C372.634 268.847 372.311 268.205 371.379 267.667C370.447 267.129 369.34 266.939 368.057 267.097C366.774 267.255 365.415 267.749 363.979 268.578C362.553 269.401 361.704 270.183 361.43 270.923Z" fill="white"/>
<path d="M249.771 191.539L256.958 195.688L255.593 196.476L241.253 199.913L239.657 198.992L253.882 195.584L248.324 192.374L249.771 191.539ZM266.384 205.346C265.496 205.859 264.488 206.169 263.358 206.277L263.375 206.286L254.116 207.34L252.39 206.343L259.149 205.593C258.885 205.466 258.688 205.365 258.557 205.289C257.394 204.618 256.797 203.862 256.764 203.02C256.753 202.178 257.318 201.428 258.458 200.77C259.598 200.112 260.892 199.789 262.339 199.801C263.808 199.814 265.124 200.156 266.286 200.827C267.448 201.498 268.034 202.254 268.045 203.096C268.078 203.938 267.525 204.688 266.384 205.346ZM262.388 201.026C261.5 201.02 260.694 201.226 259.971 201.643C259.247 202.061 258.885 202.529 258.885 203.048C258.907 203.568 259.28 204.036 260.004 204.454C260.727 204.871 261.533 205.083 262.421 205.09C263.331 205.096 264.148 204.89 264.871 204.473C265.595 204.055 265.951 203.59 265.94 203.077C265.929 202.564 265.557 202.096 264.822 201.672C264.098 201.254 263.287 201.039 262.388 201.026ZM259.529 210.465L260.779 209.744L268.985 209.696C271.156 209.696 272.631 209.471 273.409 209.022C274.056 208.649 274.363 208.243 274.33 207.807C274.297 207.37 273.995 206.987 273.425 206.658C272.34 206.031 271.035 205.873 269.511 206.183L268.985 205.006C270.093 204.784 271.156 204.746 272.176 204.892C273.206 205.044 274.111 205.344 274.889 205.794C275.854 206.351 276.374 207.019 276.451 207.797C276.528 208.576 276.029 209.275 274.955 209.895C273.793 210.566 271.841 210.902 269.1 210.902L263.229 210.892L268.443 213.902L266.962 214.757L259.529 210.465ZM279.096 208.47L286.282 212.619L284.917 213.407L270.577 216.844L268.982 215.923L283.207 212.514L277.649 209.305L279.096 208.47Z" fill="#485687"/>
<path d="M491.462 79.6679C492.547 80.2945 493.139 81.0097 493.238 81.8136C493.358 82.6175 492.854 83.3454 491.725 83.9973C490.607 84.643 489.34 84.931 487.926 84.8613C486.512 84.7917 485.257 84.4404 484.16 83.8075C483.283 83.3011 482.708 82.7283 482.434 82.089C482.17 81.4433 482.302 80.8104 482.828 80.1901L484.867 80.5129C484.462 80.9243 484.33 81.3421 484.473 81.7661C484.626 82.1839 485.021 82.5763 485.657 82.9435C486.38 83.3612 487.153 83.5923 487.975 83.6366C488.798 83.6809 489.543 83.51 490.212 83.1239C490.881 82.7377 491.177 82.3073 491.1 81.8326C491.034 81.3516 490.651 80.9085 489.949 80.5034L486.693 78.6235L493.09 75.4238L499.388 79.0602L497.958 79.8862L493.041 77.0474L489.784 78.6994L491.462 79.6679ZM489.232 86.4886L490.482 85.767L498.688 85.7196C500.858 85.7196 502.333 85.4949 503.111 85.0455C503.758 84.672 504.065 84.2669 504.032 83.8302C503.999 83.3934 503.698 83.0105 503.128 82.6813C502.042 82.0547 500.738 81.8964 499.214 82.2066L498.688 81.0293C499.795 80.8077 500.858 80.7698 501.878 80.9153C502.908 81.0673 503.813 81.3679 504.591 81.8173C505.556 82.3743 506.077 83.0421 506.154 83.8207C506.23 84.5992 505.731 85.2986 504.657 85.9189C503.495 86.5899 501.543 86.9254 498.803 86.9254L492.932 86.9159L498.145 89.9256L496.665 90.7801L489.232 86.4886ZM513.231 87.0521L520.417 91.2011L519.052 91.9892L504.712 95.4262L503.117 94.5052L517.342 91.0967L511.783 87.8876L513.231 87.0521ZM521.826 98.4331C522.1 98.9205 522.155 99.3952 521.991 99.8573C521.826 100.319 521.437 100.728 520.823 101.082C519.771 101.69 518.576 101.956 517.238 101.88C515.912 101.797 514.667 101.421 513.505 100.75C512.354 100.085 511.707 99.3699 511.565 98.604C511.433 97.8318 511.894 97.1419 512.946 96.5342C513.56 96.1798 514.267 95.9551 515.067 95.8601C515.868 95.7652 516.69 95.7968 517.534 95.9551C517.183 95.0689 517.551 94.3125 518.636 93.6859C519.678 93.0846 520.823 92.8219 522.073 92.8978C523.345 92.9738 524.469 93.2934 525.444 93.8568C526.431 94.4265 526.985 95.0752 527.105 95.8032C527.248 96.5311 526.798 97.1957 525.757 97.797C524.671 98.4236 523.361 98.6357 521.826 98.4331ZM523.981 94.7018C523.4 94.3663 522.758 94.1733 522.057 94.1226C521.366 94.0783 520.719 94.2302 520.116 94.5784C519.535 94.9138 519.277 95.2905 519.343 95.7082C519.42 96.1196 519.743 96.4899 520.313 96.8191C520.884 97.1482 521.525 97.3349 522.237 97.3792C522.961 97.4172 523.613 97.2685 524.194 96.933C524.797 96.5849 525.061 96.2114 524.984 95.8126C524.907 95.4139 524.573 95.0436 523.981 94.7018ZM514.969 99.9048C515.703 100.329 516.46 100.569 517.238 100.626C518.039 100.683 518.762 100.525 519.409 100.152C520.045 99.7845 520.308 99.3731 520.198 98.9173C520.111 98.4616 519.699 98.0217 518.965 97.5976C518.241 97.1799 517.479 96.9425 516.679 96.8855C515.901 96.8286 515.194 96.9836 514.558 97.3508C513.911 97.7242 513.631 98.1388 513.719 98.5945C513.829 99.0503 514.245 99.487 514.969 99.9048ZM528.153 107.326C526.289 107.504 524.655 107.187 523.252 106.377C521.849 105.567 521.3 104.624 521.607 103.548C521.914 102.472 522.972 101.411 524.781 100.367C526.59 99.3226 528.427 98.7118 530.29 98.5346C532.154 98.3574 533.788 98.6739 535.191 99.484C536.594 100.294 537.142 101.237 536.835 102.313C536.528 103.389 535.471 104.45 533.662 105.494C531.853 106.538 530.016 107.149 528.153 107.326ZM523.762 103.595C523.488 104.336 523.817 104.975 524.748 105.513C525.68 106.051 526.788 106.241 528.07 106.083C529.364 105.931 530.723 105.443 532.149 104.621C533.574 103.798 534.418 103.013 534.681 102.266C534.966 101.519 534.643 100.877 533.711 100.339C532.779 99.8005 531.672 99.6106 530.389 99.7689C529.106 99.9271 527.747 100.421 526.311 101.25C524.885 102.073 524.036 102.855 523.762 103.595Z" fill="#485687"/>
<circle cx="16.7676" cy="16.7676" r="15.7289" transform="matrix(0.866025 0.5 -0.866025 0.5 466.605 46.78)" stroke="#485687" stroke-width="2.0774"/>
<path d="M473.773 60.3381L472.312 59.4941L475.255 57.795L476.716 58.639L473.773 60.3381ZM458.139 69.1524L456.696 68.3196L459.271 66.8329L460.714 67.6657L458.139 69.1524ZM465.709 67.0062C466.096 66.7826 466.358 66.5311 466.493 66.2516C466.629 65.9721 466.626 65.6424 466.484 65.2623C466.355 64.8822 466.064 64.4351 465.612 63.9209C465.051 63.306 464.654 62.7229 464.422 62.1714C464.196 61.6237 464.186 61.1039 464.393 60.612C464.612 60.1201 465.102 59.6544 465.864 59.2147C466.658 58.7563 467.513 58.4601 468.429 58.326C469.346 58.1918 470.272 58.216 471.208 58.3986C472.144 58.5812 473.034 58.9166 473.88 59.4047C474.758 59.9115 475.332 60.4443 475.603 61.0032C475.881 61.5659 475.845 62.1379 475.497 62.7192C475.161 63.3004 474.506 63.8724 473.531 64.4351L471.731 63.3955C472.596 62.8962 473.105 62.367 473.26 61.8081C473.415 61.2492 473.105 60.7461 472.331 60.299C471.795 59.9897 471.253 59.7885 470.705 59.6953C470.169 59.6022 469.646 59.6059 469.136 59.7065C468.633 59.8034 468.155 59.9823 467.703 60.2431C467.29 60.4816 467.013 60.7387 466.871 61.0144C466.729 61.2902 466.732 61.6162 466.881 61.9926C467.042 62.3689 467.355 62.8291 467.82 63.3731C468.388 64.0066 468.781 64.5953 469.001 65.1393C469.227 65.6796 469.23 66.1883 469.01 66.6652C468.791 67.1422 468.3 67.6005 467.539 68.0402C466.706 68.5209 465.816 68.8189 464.867 68.9345C463.925 69.0462 462.966 68.9922 461.992 68.7724C461.024 68.5563 460.081 68.1836 459.165 67.6545C458.616 67.3378 458.148 66.9819 457.761 66.587C457.374 66.192 457.132 65.7728 457.035 65.3294C456.938 64.8859 457.038 64.4295 457.335 63.96C457.638 63.4868 458.2 63.0135 459.02 62.5403L460.83 63.5855C460.281 63.9022 459.901 64.2115 459.688 64.5133C459.488 64.8151 459.413 65.1039 459.465 65.3797C459.523 65.6517 459.665 65.9051 459.891 66.1398C460.123 66.3708 460.398 66.5776 460.714 66.7602C461.288 67.0919 461.869 67.3192 462.456 67.4421C463.05 67.5688 463.625 67.5949 464.18 67.5204C464.735 67.4458 465.244 67.2744 465.709 67.0062Z" fill="#485687"/>
<path d="M151.874 245.457L159.06 249.606L157.695 250.394L143.356 253.831L141.76 252.91L155.985 249.502L150.427 246.292L151.874 245.457ZM162.944 251.848L164.26 252.608L152.748 259.254L151.235 258.381L161.102 252.684L157.928 251.687L158.866 250.709L162.944 251.848ZM174.397 262.676C173.509 263.189 172.5 263.499 171.371 263.607L171.388 263.616L162.129 264.67L160.402 263.673L167.161 262.923C166.898 262.797 166.701 262.695 166.569 262.619C165.407 261.948 164.81 261.192 164.777 260.35C164.766 259.508 165.33 258.758 166.471 258.1C167.611 257.442 168.905 257.119 170.352 257.131C171.821 257.144 173.136 257.486 174.298 258.157C175.461 258.828 176.047 259.584 176.058 260.426C176.091 261.268 175.537 262.018 174.397 262.676ZM170.401 258.356C169.513 258.35 168.707 258.556 167.984 258.973C167.26 259.391 166.898 259.86 166.898 260.379C166.92 260.898 167.293 261.366 168.016 261.784C168.74 262.202 169.546 262.414 170.434 262.42C171.344 262.426 172.161 262.221 172.884 261.803C173.608 261.385 173.964 260.92 173.953 260.407C173.942 259.894 173.569 259.426 172.835 259.002C172.111 258.584 171.3 258.369 170.401 258.356ZM167.542 267.795L168.792 267.074L176.998 267.026C179.169 267.026 180.643 266.802 181.422 266.352C182.069 265.979 182.375 265.574 182.343 265.137C182.31 264.7 182.008 264.317 181.438 263.988C180.353 263.361 179.048 263.203 177.524 263.513L176.998 262.336C178.105 262.114 179.169 262.076 180.188 262.222C181.219 262.374 182.123 262.675 182.902 263.124C183.867 263.681 184.387 264.349 184.464 265.127C184.541 265.906 184.042 266.605 182.968 267.226C181.805 267.897 179.854 268.232 177.113 268.232L171.242 268.223L176.455 271.232L174.975 272.087L167.542 267.795ZM187.109 265.8L194.295 269.949L192.93 270.737L178.59 274.174L176.995 273.253L191.22 269.844L185.661 266.635L187.109 265.8Z" fill="#485687"/>
<g clip-path="url(#clip0_303_2017)">
<path d="M120.584 282.647C121.015 282.398 121.015 281.995 120.584 281.746C120.153 281.497 119.454 281.497 119.023 281.746L111.544 286.064L111.544 283.097C111.544 282.746 111.05 282.46 110.441 282.46C109.831 282.46 109.337 282.746 109.337 283.097L109.337 287.601C109.337 287.604 109.337 287.606 109.337 287.608C109.338 287.692 109.368 287.773 109.421 287.846C109.475 287.921 109.554 287.992 109.66 288.053C109.766 288.114 109.888 288.16 110.018 288.191C110.148 288.222 110.291 288.239 110.441 288.239L118.243 288.239C118.852 288.239 119.346 287.954 119.346 287.602C119.346 287.25 118.852 286.965 118.243 286.965L113.104 286.965L120.584 282.647Z" fill="#7C8EB1"/>
<path d="M116.683 291.206L113.561 293.008C113.131 293.257 112.432 293.257 112.001 293.008L101.077 286.701C100.647 286.452 100.647 286.049 101.077 285.8L104.199 283.998C104.629 283.75 104.629 283.346 104.199 283.097C103.768 282.849 103.069 282.849 102.638 283.097L99.517 284.899C98.2242 285.646 98.2242 286.856 99.517 287.602L110.44 293.909C111.733 294.655 113.829 294.655 115.122 293.909L118.243 292.107C118.674 291.858 118.674 291.455 118.243 291.206C117.812 290.957 117.113 290.957 116.683 291.206Z" fill="#7C8EB1"/>
</g>
<g clip-path="url(#clip1_303_2017)">
<path fill-rule="evenodd" clip-rule="evenodd" d="M168.603 307.668C168.173 307.419 167.474 307.419 167.043 307.668C166.612 307.917 166.612 308.32 167.043 308.569L169.524 310.002L166.931 312.248C166.913 312.263 166.895 312.278 166.879 312.294L161.67 316.806C161.239 317.179 161.048 317.627 161.131 318.073C161.214 318.517 161.564 318.93 162.119 319.24L169.689 323.611C170.227 323.932 170.942 324.133 171.711 324.181C172.483 324.229 173.26 324.119 173.906 323.87L173.913 323.867L181.708 320.809C181.98 320.702 182.155 320.531 182.186 320.342C182.217 320.153 182.1 319.965 181.868 319.831L169.244 312.543L171.862 310.274C172.154 310.021 172.096 309.685 171.724 309.47L168.603 307.668ZM167.995 313.624L179.364 320.188L172.676 322.812C172.462 322.894 172.204 322.931 171.948 322.915C171.69 322.898 171.451 322.831 171.271 322.723L171.256 322.714L163.672 318.336L163.657 318.327C163.471 318.223 163.353 318.085 163.325 317.936C163.297 317.788 163.361 317.638 163.505 317.514L167.995 313.624Z" fill="#7C8EB1"/>
<path d="M156.9 319.831C157.762 319.334 159.159 319.334 160.021 319.831C160.883 320.329 160.883 321.135 160.021 321.633C159.159 322.131 157.762 322.131 156.9 321.633C156.038 321.135 156.038 320.329 156.9 319.831Z" fill="#7C8EB1"/>
<path d="M165.482 324.786C166.344 324.289 167.742 324.289 168.603 324.786C169.465 325.284 169.465 326.091 168.603 326.588C167.742 327.086 166.344 327.086 165.482 326.588C164.621 326.091 164.621 325.284 165.482 324.786Z" fill="#7C8EB1"/>
</g>
<g clip-path="url(#clip2_303_2017)">
<path d="M230.668 354.313L227.547 352.511L218.184 355.213L227.547 344.402L218.184 347.105L215.063 345.303" stroke="#7C8EB1" stroke-width="1.80191" stroke-linecap="round" stroke-linejoin="round"/>
</g>
<path d="M159.589 350.201C159.589 348.057 158.102 345.45 156.246 344.34L121.258 323.404C119.354 322.264 117.791 323.134 117.791 325.333V325.333C117.791 327.476 119.278 330.083 121.134 331.193L156.122 352.13C158.027 353.269 159.589 352.4 159.589 350.201V350.201Z" fill="#7C8EB1"/>
<circle cx="14.7666" cy="14.7666" r="13.8518" transform="matrix(0.866025 0.5 -0.866025 0.5 383.104 220.846)" stroke="white" stroke-width="1.82949"/>
<path d="M390.29 232.558L389.002 231.814L391.594 230.318L392.882 231.061L390.29 232.558ZM376.521 240.32L375.251 239.587L377.518 238.277L378.789 239.011L376.521 240.32ZM383.188 238.43C383.529 238.233 383.759 238.012 383.879 237.766C383.998 237.519 383.995 237.229 383.87 236.894C383.756 236.56 383.501 236.166 383.103 235.713C382.608 235.171 382.259 234.658 382.054 234.172C381.855 233.69 381.847 233.232 382.028 232.799C382.222 232.366 382.654 231.956 383.324 231.568C384.023 231.165 384.777 230.904 385.584 230.786C386.391 230.668 387.206 230.689 388.031 230.85C388.855 231.011 389.639 231.306 390.384 231.736C391.157 232.182 391.662 232.651 391.901 233.144C392.146 233.639 392.114 234.143 391.807 234.655C391.512 235.167 390.935 235.67 390.077 236.166L388.491 235.25C389.253 234.811 389.702 234.345 389.838 233.852C389.974 233.36 389.702 232.917 389.02 232.523C388.548 232.251 388.07 232.074 387.587 231.992C387.115 231.91 386.655 231.913 386.206 232.002C385.763 232.087 385.342 232.244 384.944 232.474C384.581 232.684 384.336 232.911 384.211 233.153C384.086 233.396 384.089 233.683 384.22 234.015C384.362 234.346 384.637 234.751 385.047 235.231C385.547 235.788 385.893 236.307 386.087 236.786C386.286 237.262 386.288 237.71 386.095 238.13C385.902 238.55 385.47 238.953 384.799 239.341C384.066 239.764 383.282 240.027 382.446 240.128C381.616 240.227 380.772 240.179 379.914 239.985C379.062 239.795 378.232 239.467 377.425 239.001C376.942 238.722 376.529 238.409 376.188 238.061C375.847 237.713 375.634 237.344 375.549 236.953C375.464 236.563 375.552 236.161 375.813 235.747C376.08 235.331 376.575 234.914 377.297 234.497L378.891 235.418C378.408 235.697 378.073 235.969 377.885 236.235C377.709 236.501 377.643 236.755 377.689 236.998C377.74 237.237 377.865 237.46 378.064 237.667C378.269 237.871 378.51 238.053 378.789 238.213C379.295 238.506 379.806 238.706 380.323 238.814C380.846 238.926 381.352 238.949 381.841 238.883C382.33 238.817 382.779 238.666 383.188 238.43Z" fill="white"/>
<g filter="url(#filter6_bddii_303_2017)">
<path d="M291.051 323.334C282.438 318.331 282.438 310.252 291.051 305.249L431.434 223.704C438.658 219.507 450.412 219.497 457.658 223.68L598.672 305.095C607.349 310.105 607.349 318.227 598.672 323.236L457.439 404.777C450.193 408.961 438.439 408.95 431.215 404.754L291.051 323.334Z" fill="#A4E9FF" fill-opacity="0.2" shape-rendering="crispEdges"/>
</g>
<path opacity="0.2" d="M370.537 283.665C387.363 273.951 410.184 268.493 433.979 268.493C457.774 268.493 480.595 273.951 497.421 283.665C514.247 293.38 523.699 306.555 523.699 320.293C523.699 334.032 514.247 347.207 497.421 356.922" stroke="black" stroke-width="18.7703"/>
<path d="M370.537 283.665C381.673 277.235 395.545 272.612 410.757 270.258C425.97 267.905 441.988 267.905 457.2 270.258C472.413 272.612 486.284 277.235 497.421 283.665C508.557 290.095 516.566 298.103 520.642 306.886" stroke="#2C2D42" stroke-width="18.7703"/>
<path d="M428.449 293.773L443.598 302.52L439.677 304.784L412.194 311.479L407.301 308.654L434.047 302.113L424.025 296.328L428.449 293.773ZM444.267 312.775C446.524 314.077 447.742 315.567 447.921 317.244C448.122 318.909 447.016 320.437 444.603 321.83C442.189 323.224 439.486 323.843 436.492 323.688C433.52 323.546 430.861 322.798 428.515 321.443C426.616 320.347 425.365 319.134 424.761 317.806C424.158 316.477 424.359 315.148 425.365 313.819L431.632 314.768C430.336 316.187 430.805 317.541 433.04 318.831C434.224 319.515 435.419 319.883 436.626 319.934C437.877 319.986 438.994 319.728 439.977 319.16C440.938 318.605 441.385 317.973 441.318 317.264C441.251 316.554 440.659 315.877 439.542 315.232L432.436 311.13L446.412 304.144L459.718 311.826L455.395 314.323L446.379 309.117L441.854 311.381L444.267 312.775ZM463.315 324.313C461.192 324.301 459.327 323.83 457.718 322.901C456.109 321.972 455.294 320.882 455.271 319.631C455.271 318.392 456.042 317.328 457.584 316.438C459.126 315.548 460.969 315.103 463.114 315.103C465.281 315.116 467.169 315.587 468.778 316.515C470.387 317.444 471.191 318.528 471.191 319.766C471.214 320.992 470.443 322.056 468.879 322.959C467.315 323.862 465.46 324.313 463.315 324.313ZM445.116 326.384L477.392 325.397L478.297 327.235L445.954 328.222L445.116 326.384ZM460.165 319.708C460.165 320.173 460.466 320.579 461.07 320.927C461.673 321.275 462.377 321.45 463.181 321.45C464.008 321.437 464.723 321.256 465.326 320.908C465.929 320.56 466.231 320.153 466.231 319.689C466.231 319.224 465.929 318.818 465.326 318.47C464.723 318.121 464.019 317.947 463.215 317.947C462.432 317.96 461.74 318.141 461.137 318.489C460.533 318.837 460.209 319.244 460.165 319.708ZM461.405 338.497C459.26 338.497 457.383 338.033 455.774 337.104C454.165 336.175 453.361 335.092 453.361 333.853C453.361 332.615 454.132 331.55 455.674 330.66C457.215 329.77 459.059 329.325 461.204 329.325C463.349 329.325 465.225 329.79 466.834 330.718C468.443 331.647 469.247 332.731 469.247 333.969C469.247 335.208 468.476 336.272 466.935 337.162C465.393 338.052 463.55 338.497 461.405 338.497ZM458.254 333.931C458.254 334.395 458.556 334.801 459.159 335.15C459.762 335.498 460.466 335.659 461.271 335.633C462.097 335.62 462.801 335.446 463.382 335.111C463.985 334.763 464.287 334.356 464.287 333.892C464.332 333.427 464.052 333.021 463.449 332.673C462.846 332.324 462.131 332.157 461.304 332.17C460.522 332.183 459.829 332.363 459.226 332.711C458.623 333.06 458.299 333.466 458.254 333.931Z" fill="#2C2D42"/>
<path d="M350.433 319.144L351.866 318.317L361.273 318.263C363.762 318.263 365.452 318.005 366.344 317.49C367.086 317.062 367.438 316.597 367.4 316.097C367.362 315.596 367.017 315.157 366.363 314.78C365.119 314.061 363.623 313.88 361.876 314.235L361.273 312.886C362.542 312.632 363.762 312.588 364.93 312.755C366.112 312.929 367.149 313.274 368.041 313.789C369.147 314.428 369.744 315.193 369.832 316.086C369.92 316.978 369.348 317.78 368.116 318.491C366.784 319.261 364.547 319.645 361.405 319.645L354.675 319.634L360.651 323.085L358.954 324.064L350.433 319.144ZM378.153 326.158C378.969 326.847 379.359 327.573 379.321 328.335C379.284 329.097 378.743 329.779 377.7 330.381C376.418 331.121 374.966 331.451 373.345 331.371C371.724 331.292 370.285 330.889 369.028 330.163C368.022 329.583 367.356 328.937 367.03 328.226C366.715 327.507 366.828 326.804 367.369 326.114L369.707 326.463C368.877 327.391 369.223 328.295 370.743 329.173C371.56 329.644 372.44 329.906 373.383 329.956C374.325 330.007 375.18 329.811 375.947 329.369C376.713 328.926 377.053 328.433 376.965 327.888C376.889 327.337 376.443 326.825 375.626 326.354L375.174 326.092L375.551 325.069L382.734 324.449L376.871 321.064L378.511 320.117L386.429 324.688L384.883 325.581L378.153 326.158ZM389.368 336.835L387.728 337.782L386.126 336.856L383.618 338.304L381.865 337.292L384.372 335.844L377.642 331.958L379.282 331.011L393.063 328.519L394.949 329.607L381.167 332.1L386.013 334.897L389.745 332.742L391.499 333.754L387.766 335.909L389.368 336.835ZM399.362 338.403C400.179 339.092 400.568 339.818 400.53 340.58C400.493 341.342 399.952 342.024 398.909 342.626C397.627 343.366 396.176 343.696 394.554 343.617C392.933 343.537 391.494 343.134 390.237 342.408C389.232 341.828 388.565 341.182 388.239 340.471C387.924 339.753 388.038 339.049 388.578 338.359L390.916 338.708C390.086 339.636 390.432 340.54 391.953 341.418C392.77 341.89 393.649 342.151 394.592 342.202C395.535 342.252 396.389 342.056 397.156 341.614C397.923 341.171 398.262 340.678 398.174 340.133C398.098 339.582 397.652 339.07 396.835 338.599L396.383 338.338L396.76 337.314L403.943 336.694L398.08 333.309L399.72 332.362L407.638 336.933L406.092 337.826L399.362 338.403ZM414.126 345.948C415.446 346.709 416.118 347.577 416.143 348.549C416.181 349.514 415.546 350.374 414.239 351.129C412.932 351.883 411.436 352.253 409.752 352.239C408.068 352.224 406.566 351.836 405.247 351.074C403.914 350.305 403.236 349.434 403.21 348.462C403.198 347.497 403.845 346.637 405.152 345.882C406.17 345.294 407.314 344.939 408.583 344.816L419.179 343.596L421.177 344.75L413.466 345.61C413.768 345.755 413.988 345.868 414.126 345.948ZM405.642 348.494C405.668 349.09 406.095 349.626 406.924 350.105C407.754 350.584 408.678 350.827 409.696 350.835C410.739 350.842 411.675 350.606 412.505 350.127C413.334 349.648 413.736 349.111 413.711 348.516C413.699 347.928 413.278 347.395 412.448 346.916C411.606 346.43 410.676 346.183 409.658 346.176C408.64 346.169 407.716 346.405 406.887 346.884C406.057 347.362 405.642 347.899 405.642 348.494ZM423.521 352.046C424.765 352.765 425.444 353.585 425.557 354.506C425.695 355.428 425.117 356.262 423.822 357.01C422.54 357.75 421.089 358.08 419.467 358C417.846 357.92 416.407 357.518 415.15 356.792C414.145 356.211 413.485 355.555 413.171 354.822C412.869 354.082 413.02 353.356 413.623 352.645L415.961 353.015C415.496 353.487 415.345 353.966 415.508 354.452C415.684 354.931 416.137 355.381 416.866 355.801C417.695 356.28 418.581 356.545 419.524 356.596C420.467 356.647 421.321 356.451 422.088 356.008C422.855 355.566 423.194 355.072 423.106 354.528C423.031 353.977 422.591 353.469 421.786 353.004L418.053 350.849L425.387 347.181L432.608 351.35L430.967 352.297L425.331 349.042L421.598 350.936L423.521 352.046ZM431.763 364.228C429.626 364.431 427.753 364.068 426.145 363.14C424.536 362.211 423.907 361.13 424.259 359.896C424.611 358.662 425.824 357.447 427.898 356.25C429.972 355.052 432.077 354.352 434.213 354.149C436.35 353.946 438.223 354.309 439.831 355.237C441.44 356.166 442.069 357.247 441.717 358.481C441.365 359.715 440.152 360.93 438.078 362.127C436.004 363.325 433.899 364.025 431.763 364.228ZM426.729 359.95C426.415 360.799 426.792 361.532 427.86 362.149C428.928 362.766 430.198 362.984 431.668 362.802C433.151 362.628 434.71 362.069 436.344 361.126C437.978 360.183 438.945 359.283 439.247 358.427C439.574 357.57 439.203 356.834 438.135 356.217C437.066 355.6 435.797 355.383 434.327 355.564C432.856 355.745 431.298 356.311 429.651 357.262C428.017 358.205 427.043 359.101 426.729 359.95Z" fill="#2C2D42"/>
<rect width="5.00078" height="5.38058" rx="2.50039" transform="matrix(-0.866025 -0.5 -2.20305e-08 1 107.089 316.709)" fill="#7C8EB1"/>
<rect width="5.00078" height="5.38058" rx="2.50039" transform="matrix(-0.866025 -0.5 -2.20305e-08 1 99.9678 312.753)" fill="#7C8EB1"/>
<rect width="5.00078" height="5.38058" rx="2.50039" transform="matrix(-0.866025 -0.5 -2.20305e-08 1 92.8472 308.797)" fill="#7C8EB1"/>
<rect width="5.00078" height="5.38058" rx="2.50039" transform="matrix(-0.866025 -0.5 -2.20305e-08 1 85.7261 304.841)" fill="#7C8EB1"/>
<path opacity="0.3" d="M281.354 108.604C275.434 105.164 275.436 99.6091 281.359 96.1703L348.269 57.3219C353.236 54.438 361.315 54.4314 366.296 57.3072L426.942 92.3213C432.907 95.7654 432.908 101.349 426.942 104.794L359.649 143.645C354.666 146.522 346.584 146.514 341.617 143.628L281.354 108.604Z" fill="#C5D8E2" fill-opacity="0.7"/>
<g opacity="0.3" filter="url(#filter7_f_303_2017)">
<path fill-rule="evenodd" clip-rule="evenodd" d="M293.359 131.96L380.168 81.6978L427.733 109.16C433.699 112.604 433.699 118.188 427.733 121.632L360.441 160.484C355.458 163.36 347.375 163.353 342.409 160.466L293.359 131.96Z" fill="#212058"/>
</g>
<path opacity="0.5" d="M281.034 95.9471C275.114 92.5066 275.116 86.9519 281.039 83.513L347.948 44.6643C352.915 41.7803 360.994 41.7737 365.975 44.6496L426.942 79.8488C432.907 83.2929 432.907 88.8769 426.942 92.321L359.649 131.173C354.666 134.049 346.584 134.042 341.617 131.156L281.034 95.9471Z" fill="#C5D8E2" fill-opacity="0.7"/>
<g filter="url(#filter8_bii_303_2017)">
<path d="M280.914 83.5095C274.994 80.0691 274.996 74.5144 280.919 71.0755L347.827 32.2266C352.794 29.3426 360.874 29.336 365.855 32.2118L426.942 67.4806C432.907 70.9247 432.907 76.5088 426.942 79.9529L359.649 118.805C354.666 121.681 346.584 121.674 341.617 118.787L280.914 83.5095Z" fill="#E5F6FF" fill-opacity="0.5"/>
</g>
<path d="M328.512 66.0992C329.842 66.8675 330.568 67.7444 330.689 68.73C330.837 69.7156 330.219 70.608 328.834 71.4074C327.463 72.1989 325.911 72.552 324.177 72.4667C322.443 72.3813 320.904 71.9506 319.559 71.1746C318.484 70.5537 317.778 69.8514 317.442 69.0676C317.12 68.276 317.281 67.5 317.926 66.7394L320.426 67.1352C319.929 67.6396 319.768 68.1518 319.943 68.6718C320.131 69.184 320.615 69.6651 321.394 70.1152C322.281 70.6274 323.229 70.9107 324.237 70.965C325.245 71.0193 326.159 70.8098 326.979 70.3364C327.799 69.863 328.162 69.3353 328.068 68.7533C327.987 68.1635 327.517 67.6202 326.657 67.1236L322.664 64.8187L330.508 60.8958L338.23 65.3542L336.476 66.3669L330.447 62.8863L326.455 64.9118L328.512 66.0992ZM344.923 69.2185L353.734 74.3056L352.061 75.2717L334.479 79.4857L332.523 78.3565L349.964 74.1775L343.149 70.2429L344.923 69.2185ZM355.462 83.1724C355.798 83.7699 355.865 84.352 355.664 84.9185C355.462 85.485 354.985 85.9855 354.232 86.4201C352.942 87.1651 351.477 87.4911 349.837 87.398C348.21 87.2971 346.685 86.8353 345.26 86.0127C343.849 85.1978 343.055 84.3209 342.881 83.3819C342.719 82.4351 343.284 81.5892 344.574 80.8442C345.327 80.4096 346.194 80.1341 347.175 80.0177C348.157 79.9013 349.165 79.9401 350.2 80.1341C349.77 79.0476 350.22 78.1203 351.551 77.352C352.828 76.6147 354.232 76.2927 355.764 76.3858C357.324 76.4789 358.701 76.8708 359.898 77.5615C361.108 78.26 361.786 79.0554 361.934 79.9479C362.109 80.8403 361.558 81.6552 360.281 82.3924C358.95 83.1607 357.344 83.4207 355.462 83.1724ZM358.103 78.5975C357.391 78.1862 356.605 77.9495 355.744 77.8874C354.898 77.8331 354.104 78.0194 353.365 78.4462C352.653 78.8575 352.337 79.3193 352.418 79.8315C352.512 80.3359 352.908 80.7899 353.607 81.1934C354.306 81.597 355.092 81.8259 355.966 81.8802C356.853 81.9268 357.653 81.7444 358.365 81.3331C359.105 80.9063 359.427 80.4484 359.333 79.9595C359.239 79.4706 358.829 79.0166 358.103 78.5975ZM347.054 84.9767C347.955 85.4966 348.882 85.7915 349.837 85.8614C350.818 85.9312 351.705 85.7372 352.498 85.2793C353.278 84.8292 353.6 84.3248 353.466 83.766C353.358 83.2073 352.854 82.6679 351.954 82.148C351.067 81.6358 350.132 81.3448 349.151 81.2749C348.197 81.2051 347.33 81.3952 346.55 81.8453C345.757 82.3032 345.414 82.8115 345.522 83.3702C345.656 83.929 346.167 84.4645 347.054 84.9767ZM363.218 94.0761C360.933 94.2934 358.93 93.9054 357.21 92.912C355.489 91.9187 354.817 90.7624 355.194 89.4431C355.57 88.1238 356.867 86.8239 359.085 85.5434C361.303 84.2629 363.554 83.5141 365.839 83.2968C368.124 83.0795 370.127 83.4675 371.848 84.4608C373.568 85.4542 374.24 86.6105 373.864 87.9298C373.488 89.2491 372.191 90.549 369.973 91.8294C367.755 93.1099 365.503 93.8588 363.218 94.0761ZM357.835 89.5013C357.499 90.4093 357.902 91.1931 359.045 91.8527C360.187 92.5124 361.545 92.7452 363.117 92.5512C364.704 92.3649 366.37 91.7674 368.118 90.7585C369.865 89.7496 370.9 88.7873 371.223 87.8716C371.572 86.9558 371.176 86.1681 370.033 85.5085C368.891 84.8489 367.533 84.616 365.96 84.8101C364.388 85.0041 362.721 85.6094 360.96 86.626C359.213 87.6349 358.171 88.5933 357.835 89.5013Z" fill="#32344E"/>
<path d="M308.998 78.4117C309.319 78.9012 309.177 79.321 308.57 79.6713C308.102 79.9413 307.521 80.0574 306.827 80.0194C306.133 79.9814 305.445 79.7662 304.766 79.3738C303.662 78.7366 303.355 78.053 303.845 77.323L305.38 77.5508C305.029 77.9812 305.182 78.3863 305.84 78.7661C306.147 78.9434 306.45 79.0467 306.75 79.0763C307.057 79.1016 307.317 79.0531 307.529 78.9307C307.719 78.821 307.799 78.6944 307.77 78.5509C307.748 78.4032 307.613 78.2576 307.364 78.1142L306.586 77.6648L307.627 77.0634L308.208 77.3989C308.449 77.5382 308.691 77.6141 308.932 77.6268C309.188 77.6394 309.414 77.5888 309.612 77.4749C309.802 77.3652 309.878 77.2322 309.842 77.0761C309.813 76.9158 309.67 76.7617 309.414 76.614C308.866 76.2976 308.245 76.2174 307.55 76.3735L307.134 75.5C308.362 75.2637 309.465 75.4283 310.445 75.9937C311.059 76.3482 311.388 76.7195 311.431 77.1078C311.49 77.496 311.296 77.8188 310.85 78.0762C310.302 78.3927 309.685 78.5045 308.998 78.4117ZM317.858 80.4385L319.042 81.1221L313.561 84.287L312.377 83.6034L313.166 83.1476C312.099 83.2489 311.149 83.059 310.316 82.578C309.563 82.1433 309.197 81.6116 309.219 80.9829C309.248 80.3499 309.665 79.8014 310.469 79.3372C311.28 78.8688 312.231 78.6283 313.32 78.6156C314.409 78.6029 315.329 78.8139 316.082 79.2486C316.915 79.7296 317.248 80.2761 317.08 80.8879L317.858 80.4385ZM310.886 81.0335C310.886 81.4133 311.134 81.7467 311.631 82.0336C312.128 82.3206 312.706 82.464 313.363 82.464C314.028 82.4598 314.613 82.3121 315.118 82.021C315.622 81.7298 315.874 81.3943 315.874 81.0145C315.881 80.6305 315.636 80.2951 315.139 80.0081C314.642 79.7212 314.061 79.5798 313.396 79.584C312.738 79.584 312.157 79.7296 311.653 80.0208C311.149 80.3119 310.893 80.6495 310.886 81.0335ZM324.095 84.0394L322.955 84.6977L320.466 83.2608L316.125 85.7674L314.941 85.0838L320.422 81.9189L324.095 84.0394ZM328.143 86.2117C328.896 86.6464 329.257 87.1802 329.228 87.8131C329.206 88.4419 328.793 88.9883 327.989 89.4525C327.178 89.9209 326.228 90.1614 325.139 90.1741C324.05 90.1868 323.129 89.9758 322.376 89.5411C321.543 89.0601 321.21 88.5136 321.378 87.9018L318.407 89.6171L317.223 88.9335L324.898 84.5027L326.082 85.1863L325.292 85.6421C326.359 85.5408 327.31 85.7307 328.143 86.2117ZM322.573 87.7815C322.573 88.1613 322.822 88.4946 323.319 88.7816C323.816 89.0685 324.393 89.212 325.051 89.212C325.716 89.2078 326.301 89.0601 326.805 88.7689C327.31 88.4778 327.562 88.1423 327.562 87.7625C327.569 87.3785 327.324 87.043 326.827 86.7561C326.33 86.4691 325.749 86.3278 325.084 86.332C324.426 86.332 323.845 86.4776 323.341 86.7687C322.837 87.0599 322.581 87.3975 322.573 87.7815ZM335.284 90.4991L336.545 91.2271L328.783 93.2779C327.832 93.531 326.955 93.6239 326.151 93.5564C325.347 93.4889 324.66 93.2694 324.09 92.8981L325.198 92.2588C325.548 92.4867 325.925 92.6154 326.327 92.6449C326.729 92.6829 327.189 92.6322 327.708 92.493L327.818 92.4677L330.953 87.9989L332.214 88.7268L329.89 91.9929L335.284 90.4991ZM337.584 94.9158C337.905 95.4053 337.763 95.8251 337.156 96.1754C336.688 96.4454 336.107 96.5615 335.413 96.5235C334.718 96.4855 334.031 96.2703 333.352 95.8779C332.248 95.2407 331.941 94.5571 332.431 93.8271L333.966 94.0549C333.615 94.4853 333.768 94.8904 334.426 95.2702C334.733 95.4475 335.036 95.5508 335.336 95.5804C335.643 95.6057 335.902 95.5572 336.114 95.4348C336.304 95.3251 336.385 95.1985 336.356 95.055C336.334 94.9073 336.199 94.7617 335.95 94.6183L335.172 94.1689L336.213 93.5675L336.794 93.903C337.035 94.0423 337.277 94.1182 337.518 94.1309C337.774 94.1435 338 94.0929 338.197 93.979C338.388 93.8693 338.464 93.7363 338.428 93.5802C338.398 93.4199 338.256 93.2658 338 93.1181C337.452 92.8017 336.831 92.7215 336.136 92.8776L335.72 92.0041C336.948 91.7678 338.051 91.9324 339.031 92.4978C339.645 92.8523 339.974 93.2236 340.017 93.6119C340.076 94.0001 339.882 94.3229 339.436 94.5803C338.888 94.8968 338.271 95.0086 337.584 94.9158ZM341.467 100.399L340.053 99.5821L340.338 96.8224L337.805 98.2845L336.621 97.6009L342.103 94.4361L343.287 95.1197L340.864 96.5186L345.414 96.3477L346.861 97.1832L341.763 97.3414L341.467 100.399ZM351.714 99.985L352.624 100.51L347.142 103.675L345.98 103.004L349.466 100.991L343.173 101.384L342.263 100.858L347.745 97.6936L348.907 98.3646L345.432 100.371L351.714 99.985Z" fill="#32344E"/>
<g clip-path="url(#clip3_303_2017)">
<path d="M381.582 59.2066C382.088 58.9142 382.088 58.4402 381.582 58.1478C381.075 57.8555 380.254 57.8555 379.748 58.1478L370.959 63.2224L370.959 59.736C370.959 59.3225 370.378 58.9873 369.662 58.9873C368.946 58.9873 368.365 59.3225 368.365 59.736L368.365 65.0288C368.365 65.0314 368.365 65.034 368.365 65.0367C368.367 65.1357 368.402 65.2301 368.464 65.3164C368.527 65.4047 368.621 65.4874 368.745 65.5592C368.869 65.6309 369.013 65.6851 369.166 65.7216C369.318 65.7582 369.486 65.7784 369.662 65.7784L378.831 65.7784C379.547 65.7784 380.128 65.4433 380.128 65.0298C380.128 64.6163 379.547 64.2811 378.831 64.2811L372.792 64.2811L381.582 59.2066Z" fill="#32344E"/>
<path d="M376.997 69.2648L373.329 71.3823C372.823 71.6747 372.002 71.6747 371.496 71.3823L358.659 63.971C358.152 63.6786 358.152 63.2046 358.659 62.9122L362.327 60.7947C362.833 60.5024 362.833 60.0283 362.327 59.736C361.82 59.4436 360.999 59.4436 360.493 59.736L356.825 61.8535C355.306 62.7306 355.306 64.1527 356.825 65.0298L369.662 72.4411C371.181 73.3182 373.644 73.3182 375.163 72.4411L378.831 70.3236C379.337 70.0312 379.337 69.5572 378.831 69.2648C378.325 68.9725 377.504 68.9725 376.997 69.2648Z" fill="#32344E"/>
</g>
<g clip-path="url(#clip4_303_2017)">
<path fill-rule="evenodd" clip-rule="evenodd" d="M307.382 181.81L307.46 181.855L307.489 181.838C307.891 181.606 308.238 181.406 308.506 181.229C308.788 181.042 309.045 180.841 309.22 180.597C309.615 180.047 309.615 179.429 309.22 178.878C309.045 178.634 308.788 178.433 308.506 178.247C308.238 178.07 307.891 177.869 307.489 177.637L302.106 174.529C301.623 174.25 301.206 174.01 300.834 173.827C300.442 173.635 300.016 173.465 299.493 173.367C298.711 173.22 297.87 173.22 297.088 173.367C296.565 173.465 296.139 173.635 295.747 173.828C295.375 174.01 294.958 174.25 294.475 174.529L282.703 181.326C282.356 181.526 282.234 181.823 282.39 182.092C282.545 182.361 282.95 182.556 283.437 182.596L287.288 182.914L282.703 185.561C282.365 185.756 282.24 186.043 282.379 186.307C282.517 186.572 282.897 186.77 283.366 186.824L291.687 187.785L293.351 192.59C293.445 192.86 293.789 193.079 294.247 193.159C294.705 193.239 295.202 193.168 295.54 192.972L307.312 186.176C307.795 185.897 308.212 185.656 308.527 185.442C308.86 185.215 309.155 184.969 309.326 184.667C309.579 184.216 309.579 183.73 309.326 183.279C309.155 182.976 308.86 182.73 308.527 182.504C308.227 182.3 307.835 182.072 307.382 181.81ZM300.308 175.609C299.779 175.303 299.437 175.107 299.156 174.969C298.887 174.837 298.76 174.804 298.691 174.791C298.431 174.742 298.15 174.742 297.89 174.791C297.821 174.804 297.694 174.837 297.425 174.969C297.144 175.107 296.802 175.303 296.273 175.609L286.371 181.326L289.58 181.591L294.475 178.764C294.958 178.485 295.375 178.245 295.747 178.063C296.139 177.87 296.565 177.7 297.088 177.602C297.87 177.455 298.711 177.455 299.493 177.602C300.016 177.7 300.442 177.87 300.834 178.063C301.206 178.245 301.623 178.485 302.106 178.764L305.626 180.797C306.066 180.543 306.349 180.378 306.551 180.244C306.746 180.115 306.802 180.055 306.824 180.024C306.955 179.841 306.955 179.635 306.824 179.451C306.802 179.42 306.746 179.36 306.551 179.231C306.349 179.097 306.066 178.933 305.626 178.679L300.308 175.609ZM290.946 182.919L286.25 185.631L293.043 186.415C293.557 186.474 293.958 186.706 294.061 187.002L295.419 190.924L305.442 185.137C305.971 184.832 306.312 184.635 306.55 184.472C306.779 184.317 306.837 184.244 306.859 184.204C306.944 184.054 306.944 183.892 306.859 183.741C306.837 183.702 306.779 183.629 306.55 183.473C306.312 183.311 305.971 183.113 305.442 182.808L300.308 179.844C299.779 179.538 299.437 179.342 299.156 179.204C298.887 179.072 298.76 179.039 298.691 179.026C298.431 178.977 298.15 178.977 297.89 179.026C297.821 179.039 297.694 179.072 297.425 179.204C297.144 179.342 296.802 179.538 296.273 179.844L290.966 182.908C290.959 182.912 290.953 182.916 290.946 182.919Z" fill="#4E4BE0"/>
</g>
<g clip-path="url(#clip5_303_2017)">
<path fill-rule="evenodd" clip-rule="evenodd" d="M303.378 283.904C303.134 283.763 302.805 283.685 302.461 283.685C302.117 283.685 301.787 283.763 301.544 283.904L292.375 289.198C291.868 289.49 291.868 289.964 292.375 290.256L301.544 295.55C302.05 295.843 302.871 295.843 303.378 295.55C304.702 294.786 305.753 293.878 306.47 292.879C307.186 291.879 307.555 290.809 307.555 289.727C307.555 288.646 307.186 287.575 306.47 286.576C305.753 285.576 304.702 284.669 303.378 283.904ZM295.125 289.727L302.41 285.522C303.092 286.015 303.653 286.563 304.074 287.149C304.66 287.966 304.962 288.842 304.962 289.727C304.962 290.612 304.66 291.488 304.074 292.306C303.653 292.892 303.092 293.439 302.41 293.933L295.125 289.727Z" fill="#4E4BE0"/>
<path d="M297.558 283.452C298.225 283.603 298.977 283.413 299.239 283.029C299.501 282.644 299.172 282.209 298.506 282.058C296.337 281.567 293.992 281.39 291.677 281.542C289.362 281.695 287.147 282.173 285.226 282.934C283.305 283.694 281.736 284.716 280.656 285.908C279.576 287.1 279.018 288.426 279.032 289.771C279.045 291.117 279.629 292.439 280.732 293.624C281.836 294.809 283.425 295.82 285.361 296.568C287.297 297.316 289.521 297.779 291.839 297.917C294.157 298.054 296.498 297.861 298.657 297.356C299.32 297.2 299.64 296.764 299.371 296.381C299.102 295.997 298.346 295.813 297.682 295.968C295.915 296.382 294 296.539 292.104 296.427C290.208 296.315 288.388 295.936 286.804 295.324C285.219 294.711 283.919 293.884 283.016 292.915C282.114 291.946 281.636 290.863 281.625 289.763C281.614 288.662 282.07 287.577 282.954 286.602C283.837 285.626 285.121 284.791 286.693 284.168C288.265 283.546 290.077 283.155 291.971 283.03C293.865 282.905 295.784 283.05 297.558 283.452Z" fill="#4E4BE0"/>
</g>
<path fill-rule="evenodd" clip-rule="evenodd" d="M231.563 242.305L230.368 241.27C230.209 241.132 230.088 240.984 230.007 240.83L220.269 240.83L221.972 242.305L231.563 242.305ZM217.94 240.83L220.647 243.175C220.827 243.331 221.129 243.424 221.453 243.424L233.374 243.424C234.148 243.424 234.61 242.926 234.18 242.554L231.98 240.649C231.763 240.461 231.763 240.217 231.98 240.029L234.18 238.124C234.61 237.752 234.148 237.254 233.374 237.254L221.453 237.254C221.129 237.254 220.827 237.347 220.647 237.503L218.097 239.712L211.305 239.712C210.868 238.077 209.568 236.545 207.554 235.327C205.041 233.807 201.606 232.887 197.946 232.751C194.286 232.615 190.67 233.273 187.831 234.593C184.99 235.914 183.139 237.8 182.659 239.869C182.178 241.938 183.105 244.032 185.247 245.727C187.389 247.42 190.585 248.587 194.182 248.992C197.78 249.398 201.516 249.013 204.634 247.914C207.442 246.925 209.56 245.422 210.65 243.662C210.83 243.371 210.568 243.051 210.064 242.947C209.56 242.843 209.005 242.994 208.825 243.285C207.886 244.803 206.057 246.102 203.624 246.959C200.921 247.911 197.678 248.246 194.554 247.894C191.429 247.542 188.663 246.53 186.812 245.067C184.963 243.604 184.166 241.799 184.579 240.017C184.993 238.236 186.588 236.608 189.046 235.465C191.505 234.321 194.642 233.749 197.822 233.867C201.001 233.986 203.979 234.785 206.152 236.099C207.822 237.11 208.921 238.367 209.34 239.712L206.625 239.712C206.205 238.974 205.415 238.301 204.329 237.752C202.666 236.911 200.422 236.415 198.063 236.342C195.703 236.269 193.353 236.622 191.487 237.347C189.619 238.073 188.351 239.131 188.019 240.324C187.687 241.521 188.336 242.718 189.773 243.668C191.204 244.614 193.305 245.246 195.628 245.465C197.951 245.684 200.371 245.478 202.406 244.878C204.086 244.383 205.422 243.644 206.206 242.752C206.449 242.477 206.258 242.14 205.781 242C205.304 241.86 204.721 241.97 204.478 242.245C203.901 242.902 202.885 243.481 201.525 243.882C199.874 244.368 197.874 244.543 195.94 244.361C194.005 244.178 192.33 243.657 191.233 242.932C190.142 242.211 189.699 241.343 189.933 240.501C190.168 239.656 191.082 238.853 192.57 238.275C194.06 237.696 195.987 237.398 197.959 237.459C199.931 237.521 201.748 237.935 203.052 238.594C203.71 238.927 204.209 239.307 204.542 239.712L195.525 239.712L195.525 240.83L205.282 240.83C205.492 240.938 205.781 240.993 206.08 240.965C206.27 240.948 206.438 240.899 206.572 240.83L217.94 240.83ZM220.426 239.712L230.09 239.712C230.164 239.606 230.256 239.505 230.368 239.408L231.563 238.373L221.972 238.373L220.426 239.712Z" fill="#4E4BE0"/>
<defs>
<filter id="filter0_bdi_303_2017" x="122.776" y="72.4611" width="106.558" height="142.241" filterUnits="userSpaceOnUse" color-interpolation-filters="sRGB">
<feFlood flood-opacity="0" result="BackgroundImageFix"/>
<feGaussianBlur in="BackgroundImageFix" stdDeviation="2.71987"/>
<feComposite in2="SourceAlpha" operator="in" result="effect1_backgroundBlur_303_2017"/>
<feColorMatrix in="SourceAlpha" type="matrix" values="0 0 0 0 0 0 0 0 0 0 0 0 0 0 0 0 0 0 127 0" result="hardAlpha"/>
<feOffset dx="9.49449" dy="4.74725"/>
<feComposite in2="hardAlpha" operator="out"/>
<feColorMatrix type="matrix" values="0 0 0 0 0.729412 0 0 0 0 0.819608 0 0 0 0 0.878431 0 0 0 1 0"/>
<feBlend mode="normal" in2="effect1_backgroundBlur_303_2017" result="effect2_dropShadow_303_2017"/>
<feBlend mode="normal" in="SourceGraphic" in2="effect2_dropShadow_303_2017" result="shape"/>
<feColorMatrix in="SourceAlpha" type="matrix" values="0 0 0 0 0 0 0 0 0 0 0 0 0 0 0 0 0 0 127 0" result="hardAlpha"/>
<feOffset dx="-0.543973" dy="-2.17589"/>
<feGaussianBlur stdDeviation="0.543973"/>
<feComposite in2="hardAlpha" operator="arithmetic" k2="-1" k3="1"/>
<feColorMatrix type="matrix" values="0 0 0 0 1 0 0 0 0 1 0 0 0 0 1 0 0 0 0.4 0"/>
<feBlend mode="normal" in2="shape" result="effect3_innerShadow_303_2017"/>
</filter>
<filter id="filter1_f_303_2017" x="0.290825" y="27.5894" width="732.589" height="484.013" filterUnits="userSpaceOnUse" color-interpolation-filters="sRGB">
<feFlood flood-opacity="0" result="BackgroundImageFix"/>
<feBlend mode="normal" in="SourceGraphic" in2="BackgroundImageFix" result="shape"/>
<feGaussianBlur stdDeviation="35.6043" result="effect1_foregroundBlur_303_2017"/>
</filter>
<filter id="filter2_ddii_303_2017" x="199.962" y="151.318" width="169.23" height="129.044" filterUnits="userSpaceOnUse" color-interpolation-filters="sRGB">
<feFlood flood-opacity="0" result="BackgroundImageFix"/>
<feColorMatrix in="SourceAlpha" type="matrix" values="0 0 0 0 0 0 0 0 0 0 0 0 0 0 0 0 0 0 127 0" result="hardAlpha"/>
<feOffset dy="30.0659"/>
<feGaussianBlur stdDeviation="6.04695"/>
<feComposite in2="hardAlpha" operator="out"/>
<feColorMatrix type="matrix" values="0 0 0 0 0.0495645 0 0 0 0 0.0415556 0 0 0 0 0.141667 0 0 0 0.1 0"/>
<feBlend mode="normal" in2="BackgroundImageFix" result="effect1_dropShadow_303_2017"/>
<feColorMatrix in="SourceAlpha" type="matrix" values="0 0 0 0 0 0 0 0 0 0 0 0 0 0 0 0 0 0 127 0" result="hardAlpha"/>
<feOffset dy="2.41878"/>
<feGaussianBlur stdDeviation="1.20939"/>
<feComposite in2="hardAlpha" operator="out"/>
<feColorMatrix type="matrix" values="0 0 0 0 0 0 0 0 0 0 0 0 0 0 0 0 0 0 0.15 0"/>
<feBlend mode="normal" in2="effect1_dropShadow_303_2017" result="effect2_dropShadow_303_2017"/>
<feBlend mode="normal" in="SourceGraphic" in2="effect2_dropShadow_303_2017" result="shape"/>
<feColorMatrix in="SourceAlpha" type="matrix" values="0 0 0 0 0 0 0 0 0 0 0 0 0 0 0 0 0 0 127 0" result="hardAlpha"/>
<feOffset dx="0.791208" dy="-1.18681"/>
<feGaussianBlur stdDeviation="1.18681"/>
<feComposite in2="hardAlpha" operator="arithmetic" k2="-1" k3="1"/>
<feColorMatrix type="matrix" values="0 0 0 0 0.0720755 0 0 0 0 0.0587118 0 0 0 0 0.154167 0 0 0 0.3 0"/>
<feBlend mode="normal" in2="shape" result="effect3_innerShadow_303_2017"/>
<feColorMatrix in="SourceAlpha" type="matrix" values="0 0 0 0 0 0 0 0 0 0 0 0 0 0 0 0 0 0 127 0" result="hardAlpha"/>
<feOffset dx="0.395604" dy="1.18681"/>
<feGaussianBlur stdDeviation="0.791208"/>
<feComposite in2="hardAlpha" operator="arithmetic" k2="-1" k3="1"/>
<feColorMatrix type="matrix" values="0 0 0 0 1 0 0 0 0 1 0 0 0 0 1 0 0 0 0.4 0"/>
<feBlend mode="normal" in2="effect3_innerShadow_303_2017" result="effect4_innerShadow_303_2017"/>
</filter>
<filter id="filter3_ddii_303_2017" x="105.808" y="205.911" width="169.23" height="129.044" filterUnits="userSpaceOnUse" color-interpolation-filters="sRGB">
<feFlood flood-opacity="0" result="BackgroundImageFix"/>
<feColorMatrix in="SourceAlpha" type="matrix" values="0 0 0 0 0 0 0 0 0 0 0 0 0 0 0 0 0 0 127 0" result="hardAlpha"/>
<feOffset dy="30.0659"/>
<feGaussianBlur stdDeviation="6.04695"/>
<feComposite in2="hardAlpha" operator="out"/>
<feColorMatrix type="matrix" values="0 0 0 0 0.0495645 0 0 0 0 0.0415556 0 0 0 0 0.141667 0 0 0 0.1 0"/>
<feBlend mode="normal" in2="BackgroundImageFix" result="effect1_dropShadow_303_2017"/>
<feColorMatrix in="SourceAlpha" type="matrix" values="0 0 0 0 0 0 0 0 0 0 0 0 0 0 0 0 0 0 127 0" result="hardAlpha"/>
<feOffset dy="2.41878"/>
<feGaussianBlur stdDeviation="1.20939"/>
<feComposite in2="hardAlpha" operator="out"/>
<feColorMatrix type="matrix" values="0 0 0 0 0 0 0 0 0 0 0 0 0 0 0 0 0 0 0.15 0"/>
<feBlend mode="normal" in2="effect1_dropShadow_303_2017" result="effect2_dropShadow_303_2017"/>
<feBlend mode="normal" in="SourceGraphic" in2="effect2_dropShadow_303_2017" result="shape"/>
<feColorMatrix in="SourceAlpha" type="matrix" values="0 0 0 0 0 0 0 0 0 0 0 0 0 0 0 0 0 0 127 0" result="hardAlpha"/>
<feOffset dx="0.791208" dy="-1.18681"/>
<feGaussianBlur stdDeviation="1.18681"/>
<feComposite in2="hardAlpha" operator="arithmetic" k2="-1" k3="1"/>
<feColorMatrix type="matrix" values="0 0 0 0 0.0720755 0 0 0 0 0.0587118 0 0 0 0 0.154167 0 0 0 0.3 0"/>
<feBlend mode="normal" in2="shape" result="effect3_innerShadow_303_2017"/>
<feColorMatrix in="SourceAlpha" type="matrix" values="0 0 0 0 0 0 0 0 0 0 0 0 0 0 0 0 0 0 127 0" result="hardAlpha"/>
<feOffset dx="0.395604" dy="1.18681"/>
<feGaussianBlur stdDeviation="0.791208"/>
<feComposite in2="hardAlpha" operator="arithmetic" k2="-1" k3="1"/>
<feColorMatrix type="matrix" values="0 0 0 0 1 0 0 0 0 1 0 0 0 0 1 0 0 0 0.4 0"/>
<feBlend mode="normal" in2="effect3_innerShadow_303_2017" result="effect4_innerShadow_303_2017"/>
</filter>
<filter id="filter4_ddii_303_2017" x="198.38" y="257.34" width="169.23" height="129.044" filterUnits="userSpaceOnUse" color-interpolation-filters="sRGB">
<feFlood flood-opacity="0" result="BackgroundImageFix"/>
<feColorMatrix in="SourceAlpha" type="matrix" values="0 0 0 0 0 0 0 0 0 0 0 0 0 0 0 0 0 0 127 0" result="hardAlpha"/>
<feOffset dy="30.0659"/>
<feGaussianBlur stdDeviation="6.04695"/>
<feComposite in2="hardAlpha" operator="out"/>
<feColorMatrix type="matrix" values="0 0 0 0 0.0495645 0 0 0 0 0.0415556 0 0 0 0 0.141667 0 0 0 0.1 0"/>
<feBlend mode="normal" in2="BackgroundImageFix" result="effect1_dropShadow_303_2017"/>
<feColorMatrix in="SourceAlpha" type="matrix" values="0 0 0 0 0 0 0 0 0 0 0 0 0 0 0 0 0 0 127 0" result="hardAlpha"/>
<feOffset dy="2.41878"/>
<feGaussianBlur stdDeviation="1.20939"/>
<feComposite in2="hardAlpha" operator="out"/>
<feColorMatrix type="matrix" values="0 0 0 0 0 0 0 0 0 0 0 0 0 0 0 0 0 0 0.15 0"/>
<feBlend mode="normal" in2="effect1_dropShadow_303_2017" result="effect2_dropShadow_303_2017"/>
<feBlend mode="normal" in="SourceGraphic" in2="effect2_dropShadow_303_2017" result="shape"/>
<feColorMatrix in="SourceAlpha" type="matrix" values="0 0 0 0 0 0 0 0 0 0 0 0 0 0 0 0 0 0 127 0" result="hardAlpha"/>
<feOffset dx="0.791208" dy="-1.18681"/>
<feGaussianBlur stdDeviation="1.18681"/>
<feComposite in2="hardAlpha" operator="arithmetic" k2="-1" k3="1"/>
<feColorMatrix type="matrix" values="0 0 0 0 0.0720755 0 0 0 0 0.0587118 0 0 0 0 0.154167 0 0 0 0.3 0"/>
<feBlend mode="normal" in2="shape" result="effect3_innerShadow_303_2017"/>
<feColorMatrix in="SourceAlpha" type="matrix" values="0 0 0 0 0 0 0 0 0 0 0 0 0 0 0 0 0 0 127 0" result="hardAlpha"/>
<feOffset dx="0.395604" dy="1.18681"/>
<feGaussianBlur stdDeviation="0.791208"/>
<feComposite in2="hardAlpha" operator="arithmetic" k2="-1" k3="1"/>
<feColorMatrix type="matrix" values="0 0 0 0 1 0 0 0 0 1 0 0 0 0 1 0 0 0 0.4 0"/>
<feBlend mode="normal" in2="effect3_innerShadow_303_2017" result="effect4_innerShadow_303_2017"/>
</filter>
<filter id="filter5_i_303_2017" x="301.453" y="201.558" width="141.973" height="83.9193" filterUnits="userSpaceOnUse" color-interpolation-filters="sRGB">
<feFlood flood-opacity="0" result="BackgroundImageFix"/>
<feBlend mode="normal" in="SourceGraphic" in2="BackgroundImageFix" result="shape"/>
<feColorMatrix in="SourceAlpha" type="matrix" values="0 0 0 0 0 0 0 0 0 0 0 0 0 0 0 0 0 0 127 0" result="hardAlpha"/>
<feOffset dy="6.32966"/>
<feComposite in2="hardAlpha" operator="arithmetic" k2="-1" k3="1"/>
<feColorMatrix type="matrix" values="0 0 0 0 0.0854531 0 0 0 0 0.0825 0 0 0 0 0.229167 0 0 0 0.3 0"/>
<feBlend mode="normal" in2="shape" result="effect1_innerShadow_303_2017"/>
</filter>
<filter id="filter6_bddii_303_2017" x="272.497" y="208.456" width="344.776" height="241.612" filterUnits="userSpaceOnUse" color-interpolation-filters="sRGB">
<feFlood flood-opacity="0" result="BackgroundImageFix"/>
<feGaussianBlur in="BackgroundImageFix" stdDeviation="6.04695"/>
<feComposite in2="SourceAlpha" operator="in" result="effect1_backgroundBlur_303_2017"/>
<feColorMatrix in="SourceAlpha" type="matrix" values="0 0 0 0 0 0 0 0 0 0 0 0 0 0 0 0 0 0 127 0" result="hardAlpha"/>
<feOffset dy="30.0659"/>
<feGaussianBlur stdDeviation="6.04695"/>
<feComposite in2="hardAlpha" operator="out"/>
<feColorMatrix type="matrix" values="0 0 0 0 0.0495645 0 0 0 0 0.0415556 0 0 0 0 0.141667 0 0 0 0.1 0"/>
<feBlend mode="normal" in2="effect1_backgroundBlur_303_2017" result="effect2_dropShadow_303_2017"/>
<feColorMatrix in="SourceAlpha" type="matrix" values="0 0 0 0 0 0 0 0 0 0 0 0 0 0 0 0 0 0 127 0" result="hardAlpha"/>
<feOffset dy="2.41878"/>
<feGaussianBlur stdDeviation="1.20939"/>
<feComposite in2="hardAlpha" operator="out"/>
<feColorMatrix type="matrix" values="0 0 0 0 0 0 0 0 0 0 0 0 0 0 0 0 0 0 0.15 0"/>
<feBlend mode="normal" in2="effect2_dropShadow_303_2017" result="effect3_dropShadow_303_2017"/>
<feBlend mode="normal" in="SourceGraphic" in2="effect3_dropShadow_303_2017" result="shape"/>
<feColorMatrix in="SourceAlpha" type="matrix" values="0 0 0 0 0 0 0 0 0 0 0 0 0 0 0 0 0 0 127 0" result="hardAlpha"/>
<feOffset dx="0.604695" dy="-1.81409"/>
<feGaussianBlur stdDeviation="3.02348"/>
<feComposite in2="hardAlpha" operator="arithmetic" k2="-1" k3="1"/>
<feColorMatrix type="matrix" values="0 0 0 0 0.0720755 0 0 0 0 0.0587118 0 0 0 0 0.154167 0 0 0 0.3 0"/>
<feBlend mode="normal" in2="shape" result="effect4_innerShadow_303_2017"/>
<feColorMatrix in="SourceAlpha" type="matrix" values="0 0 0 0 0 0 0 0 0 0 0 0 0 0 0 0 0 0 127 0" result="hardAlpha"/>
<feOffset dx="-0.604695" dy="2.41878"/>
<feGaussianBlur stdDeviation="1.81409"/>
<feComposite in2="hardAlpha" operator="arithmetic" k2="-1" k3="1"/>
<feColorMatrix type="matrix" values="0 0 0 0 1 0 0 0 0 1 0 0 0 0 1 0 0 0 0.4 0"/>
<feBlend mode="normal" in2="effect4_innerShadow_303_2017" result="effect5_innerShadow_303_2017"/>
</filter>
<filter id="filter7_f_303_2017" x="283.864" y="72.2033" width="157.838" height="99.9275" filterUnits="userSpaceOnUse" color-interpolation-filters="sRGB">
<feFlood flood-opacity="0" result="BackgroundImageFix"/>
<feBlend mode="normal" in="SourceGraphic" in2="BackgroundImageFix" result="shape"/>
<feGaussianBlur stdDeviation="4.74725" result="effect1_foregroundBlur_303_2017"/>
</filter>
<filter id="filter8_bii_303_2017" x="271.036" y="24.6196" width="165.82" height="102.667" filterUnits="userSpaceOnUse" color-interpolation-filters="sRGB">
<feFlood flood-opacity="0" result="BackgroundImageFix"/>
<feGaussianBlur in="BackgroundImageFix" stdDeviation="2.71986"/>
<feComposite in2="SourceAlpha" operator="in" result="effect1_backgroundBlur_303_2017"/>
<feBlend mode="normal" in="SourceGraphic" in2="effect1_backgroundBlur_303_2017" result="shape"/>
<feColorMatrix in="SourceAlpha" type="matrix" values="0 0 0 0 0 0 0 0 0 0 0 0 0 0 0 0 0 0 127 0" result="hardAlpha"/>
<feOffset dx="-0.543973" dy="-2.17589"/>
<feGaussianBlur stdDeviation="0.543973"/>
<feComposite in2="hardAlpha" operator="arithmetic" k2="-1" k3="1"/>
<feColorMatrix type="matrix" values="0 0 0 0 1 0 0 0 0 1 0 0 0 0 1 0 0 0 0.4 0"/>
<feBlend mode="normal" in2="shape" result="effect2_innerShadow_303_2017"/>
<feColorMatrix in="SourceAlpha" type="matrix" values="0 0 0 0 0 0 0 0 0 0 0 0 0 0 0 0 0 0 127 0" result="hardAlpha"/>
<feOffset dy="6.32966"/>
<feGaussianBlur stdDeviation="9.89009"/>
<feComposite in2="hardAlpha" operator="arithmetic" k2="-1" k3="1"/>
<feColorMatrix type="matrix" values="0 0 0 0 0.00843754 0 0 0 0 0.133069 0 0 0 0 0.375 0 0 0 0.2 0"/>
<feBlend mode="normal" in2="effect2_innerShadow_303_2017" result="effect3_innerShadow_303_2017"/>
</filter>
<linearGradient id="paint0_linear_303_2017" x1="506.274" y1="108.101" x2="449.917" y2="222.363" gradientUnits="userSpaceOnUse">
<stop offset="0.193416" stop-color="#4E4BE0"/>
<stop offset="1" stop-color="#4E4BE0" stop-opacity="0"/>
</linearGradient>
<linearGradient id="paint1_linear_303_2017" x1="506.274" y1="108.101" x2="449.917" y2="222.363" gradientUnits="userSpaceOnUse">
<stop offset="0.193416" stop-color="#4E4BE0"/>
<stop offset="1" stop-color="#4E4BE0" stop-opacity="0"/>
</linearGradient>
<clipPath id="clip0_303_2017">
<rect width="21.6229" height="21.6229" fill="white" transform="matrix(0.866025 0.5 -0.866025 0.5 112.781 275.439)"/>
</clipPath>
<clipPath id="clip1_303_2017">
<rect width="21.6229" height="21.6229" fill="white" transform="matrix(0.866025 0.5 -0.866025 0.5 167.823 307.218)"/>
</clipPath>
<clipPath id="clip2_303_2017">
<rect width="21.6229" height="21.6229" fill="white" transform="matrix(0.866025 0.5 -0.866025 0.5 222.865 338.996)"/>
</clipPath>
<clipPath id="clip3_303_2017">
<rect width="25.4103" height="25.4103" fill="white" transform="matrix(0.866025 0.5 -0.866025 0.5 372.413 50.7366)"/>
</clipPath>
<clipPath id="clip4_303_2017">
<rect width="25.4103" height="25.4103" fill="white" transform="matrix(0.866025 0.5 -0.866025 0.5 296.457 170.209)"/>
</clipPath>
<clipPath id="clip5_303_2017">
<rect width="25.4103" height="25.4103" fill="white" transform="matrix(0.866025 0.5 -0.866025 0.5 293.292 277.022)"/>
</clipPath>
</defs>
</svg>
